<?xml version="1.0" encoding="UTF-8" standalone="no"?>
<!DOCTYPE svg PUBLIC "-//W3C//DTD SVG 1.1//EN" "http://www.w3.org/Graphics/SVG/1.1/DTD/svg11.dtd">
<!-- Created with Vectornator (http://vectornator.io/) -->
<svg height="24.0pt" stroke-miterlimit="10" style="fill-rule:nonzero;clip-rule:evenodd;stroke-linecap:round;stroke-linejoin:round;" version="1.1" viewBox="0 0 24 24" width="24.0pt" xml:space="preserve" xmlns="http://www.w3.org/2000/svg" xmlns:xlink="http://www.w3.org/1999/xlink">
<defs/>
<g id="SVGRepo_iconCarrier">
<path d="M7.90625 12.1875C4.64055 12.1875 2 14.828 2 18.0938C2 21.3595 4.64055 24 7.90625 24C9.49828 24 10.9369 23.367 12 22.3438C10.8824 21.268 10.1875 19.7674 10.1875 18.0938C10.1875 16.4204 10.8828 14.9194 12 13.8438C10.9369 12.8201 9.4986 12.1875 7.90625 12.1875ZM12 13.8438C13.1172 14.9194 13.8125 16.4204 13.8125 18.0938C13.8125 19.7674 13.1176 21.268 12 22.3438C13.0631 23.367 14.5017 24 16.0938 24C19.3595 24 22 21.3595 22 18.0938C22 14.828 19.3595 12.1875 16.0938 12.1875C14.5014 12.1875 13.0631 12.8201 12 13.8438Z" fill="#ffffff" fill-rule="nonzero" opacity="1" stroke="none"/>
</g>
</svg>
