<?xml version="1.0" encoding="UTF-8" standalone="no"?>
<!DOCTYPE svg PUBLIC "-//W3C//DTD SVG 1.1//EN" "http://www.w3.org/Graphics/SVG/1.1/DTD/svg11.dtd">
<!-- Created with Vectornator (http://vectornator.io/) -->
<svg height="100%" stroke-miterlimit="10" style="fill-rule:nonzero;clip-rule:evenodd;stroke-linecap:round;stroke-linejoin:round;" version="1.1" viewBox="0 0 128 128" width="100%" xml:space="preserve" xmlns="http://www.w3.org/2000/svg" xmlns:vectornator="http://vectornator.io" xmlns:xlink="http://www.w3.org/1999/xlink">
<defs/>
<clipPath id="ArtboardFrame">
<rect height="128" width="128" x="0" y="0"/>
</clipPath>
<g clip-path="url(#ArtboardFrame)" id="Untitled" vectornator:layerName="Untitled">
<path d="M127.341 87.8117C126.582 86.6702 125.267 86.0213 123.894 86.114L122.984 86.114C122.132 86.114 121.269 86.2357 120.405 86.2357C105.469 86.2241 91.1445 80.2852 80.5761 69.7282C70.0077 59.1711 64.0567 44.8534 64.0226 29.9166C64.0226 21.4746 65.9405 13.1376 69.6312 5.53429C70.2222 4.30015 70.1237 2.84582 69.3589 1.71022C68.5941 0.574609 67.2904-0.074331 65.923 0.00680506C50.8349 0.933862 36.5642 7.16828 25.6309 17.6031C14.6974 28.0383 7.8017 42.0077 6.17453 57.0319C4.54053 72.0621 8.27783 87.1783 16.7198 99.7166C25.1618 112.255 37.7648 121.404 52.301 125.547C66.8385 129.689 82.3718 128.559 96.156 122.354C109.934 116.149 121.083 105.273 127.618 91.6456C128.215 90.4056 128.105 88.9513 127.34 87.8099L127.341 87.8117ZM93.2713 104.806L93.2713 104.812C86.0518 108.919 77.8821 111.052 69.5727 110.988C61.2697 110.924 53.129 108.67 45.9736 104.452C44.3222 103.294 43.8355 101.057 44.8669 99.3189C45.8925 97.5864 48.0884 96.9317 49.9019 97.824C55.8756 101.353 62.6722 103.241 69.6134 103.294C76.5489 103.352 83.3801 101.567 89.4064 98.1369C91.2605 97.0707 93.6246 97.7139 94.6849 99.5622C95.7452 101.416 95.1078 103.78 93.2537 104.841L93.2713 104.806Z" fill="#ffffff" fill-rule="nonzero" opacity="1" stroke="none" vectornator:layerName="path"/>
</g>
</svg>
