<?xml version="1.0" encoding="UTF-8" standalone="no"?>
<!DOCTYPE svg PUBLIC "-//W3C//DTD SVG 1.1//EN" "http://www.w3.org/Graphics/SVG/1.1/DTD/svg11.dtd">
<!-- Created with Vectornator (http://vectornator.io/) -->
<svg height="100%" stroke-miterlimit="10" style="fill-rule:nonzero;clip-rule:evenodd;stroke-linecap:round;stroke-linejoin:round;" version="1.1" viewBox="0 0 512 88.64" width="100%" xml:space="preserve" xmlns="http://www.w3.org/2000/svg" xmlns:vectornator="http://vectornator.io" xmlns:xlink="http://www.w3.org/1999/xlink">
<defs/>
<g id="Layer-1" vectornator:layerName="Layer 1">
<g opacity="1" vectornator:layerName="g">
<path d="M69.4695 88.5063C69.3939 88.4496 69.3373 84.3121 69.3373 79.3432L69.3373 70.2935L70.8109 70.3502L72.2657 70.4068L72.2468 71.2192C72.2468 71.6538 72.3035 72.0127 72.3979 72.0127C72.4735 72.0127 72.5491 71.9561 72.5491 71.8805C72.5491 71.5215 73.5126 70.6713 74.2683 70.3124C75.4019 69.8023 77.6124 69.8023 78.746 70.3124C80.8998 71.2759 82.1845 73.6564 82.1845 76.5659C82.1656 79.5133 80.9942 81.6859 78.8404 82.8006C77.0267 83.7264 74.0416 83.2352 72.8325 81.7993L72.3601 81.2325L72.3413 83.0085C72.3224 83.972 72.3224 85.6346 72.3224 86.7115L72.3224 88.6386L70.9432 88.6386C70.2063 88.6386 69.5262 88.5819 69.4695 88.5063ZM76.4221 80.7035C76.4788 80.609 76.7055 80.5146 76.8945 80.5146C77.3857 80.5146 78.3114 79.6833 78.6893 78.9087C79.1049 78.0207 79.1238 75.1301 78.7271 74.3366C77.8391 72.6362 76.0632 71.975 74.2872 72.674C73.0403 73.1841 72.379 74.431 72.2846 76.377C72.2468 77.2272 72.3413 77.8507 72.5869 78.4364C72.9647 79.3621 74.1172 80.5146 74.6462 80.5146C74.8351 80.5146 75.043 80.609 75.0996 80.7035C75.1563 80.8169 75.4586 80.8924 75.7609 80.8924C76.0632 80.8924 76.3655 80.8169 76.4221 80.7035Z" fill="#ffffff" fill-rule="nonzero" opacity="1" stroke="none" vectornator:layerName="path"/>
<path d="M14.3587 83.1596C14.3587 82.9518 14.2831 82.7817 14.1697 82.7817C14.0753 82.7817 13.9808 82.6684 13.9808 82.5172C13.9808 82.2527 13.5652 81.2892 12.2615 78.493C11.8648 77.6428 11.3925 76.4715 11.2224 75.8858C10.9013 74.9034 10.5801 74.5066 10.5801 75.1301C10.5801 75.2812 10.5045 75.5646 10.41 75.7535C10.1644 76.2259 9.63542 77.435 9.63542 77.5484C9.63542 77.6051 9.29535 78.3986 8.86081 79.3243C7.40605 82.4606 7.17934 82.9896 7.17934 83.1596C7.17934 83.273 7.10376 83.3485 6.99041 83.3485C6.89594 83.3485 6.80148 83.2352 6.80148 83.084C6.80148 82.9329 6.7448 82.7817 6.66923 82.744C6.4803 82.6684 3.40074 76.4526 3.40074 76.1881C3.40074 76.0747 3.32517 75.9803 3.21181 75.9803C3.11734 75.9803 3.02288 75.8102 3.02288 75.6213C3.02288 75.4135 2.94731 75.2245 2.87173 75.1868C2.79616 75.1679 2.4372 74.4688 2.09712 73.6753C1.73815 72.8629 1.39808 72.2017 1.32251 72.2017C1.24694 72.2017 1.13358 72.0505 1.0769 71.8805C1.00133 71.6916 0.831292 71.257 0.680148 70.9358L0.396753 70.3124L1.96487 70.3124L3.5141 70.3124L4.25092 71.8805C4.64768 72.7307 5.29004 74.1099 5.70568 74.9411C6.10244 75.7724 6.42362 76.6037 6.42362 76.7738C6.42362 76.9438 6.51808 77.1516 6.61255 77.2083C6.7259 77.265 6.80148 77.5295 6.80148 77.794C6.80148 78.4175 7.10376 78.2285 7.23601 77.5295C7.29269 77.2272 7.5572 76.5093 7.8217 75.9236C8.10509 75.3379 8.31292 74.79 8.31292 74.6766C8.31292 74.5822 8.36959 74.4688 8.46406 74.431C8.59631 74.3744 10.2022 70.8414 10.2022 70.5958C10.2022 70.4257 10.769 69.8778 10.8635 69.9534C10.9013 70.0101 11.3736 70.9736 11.9026 72.1072C12.4505 73.2597 13.2251 74.9034 13.6407 75.7913C14.0564 76.6793 14.3965 77.624 14.3965 77.9262C14.3776 78.6631 14.6799 78.5497 14.831 77.7562C14.8877 77.3783 15.1711 76.5848 15.4356 75.9992C15.7001 75.4135 16.1157 74.5255 16.3424 73.9965C17.2682 71.9561 17.7216 70.9547 17.8161 70.6524C17.9294 70.3502 18.2506 70.3124 20.839 70.3124L23.7485 70.3124L24.3531 71.6916C24.6931 72.4284 25.0521 73.2219 25.1655 73.4297C25.8645 74.6578 26.6958 76.5282 26.7714 77.0194C26.9225 77.9451 27.1114 78.1341 27.357 77.6428C27.8105 76.6982 28.7173 74.4877 28.7173 74.2988C28.7173 74.1854 28.8118 74.091 28.9063 74.091C29.0196 74.091 29.0952 73.9965 29.0952 73.8831C29.0952 73.7887 29.2652 73.3352 29.4542 72.9007C29.662 72.4662 30.0399 71.616 30.3044 71.0303C30.55 70.4257 30.8711 69.9345 30.9656 69.9345C31.1734 69.9345 32.2314 72.0883 32.4204 72.9007C32.4959 73.1463 32.5904 73.3352 32.666 73.3352C32.7227 73.3352 32.8927 73.6186 33.0438 73.9587C33.195 74.2799 33.5539 75.0734 33.8562 75.678C34.1396 76.3014 34.3852 76.9627 34.3852 77.1516C34.3852 77.3406 34.4608 77.4917 34.5553 77.4917C34.6497 77.4917 34.7631 77.6428 34.8009 77.8318C34.8576 78.0396 34.9709 77.8885 35.1221 77.3972C35.3677 76.6982 35.6133 76.0936 36.7469 73.6186C36.9736 73.1085 37.4081 72.145 37.6915 71.5026L38.2394 70.3124L41.13 70.3124C43.7184 70.3124 44.0396 70.3502 44.1529 70.6524C44.2096 70.8225 44.5875 71.6538 44.9842 72.4851C45.3999 73.2975 45.721 74.091 45.721 74.2043C45.721 74.3366 45.7966 74.4688 45.8722 74.5066C46.0989 74.6011 47.0058 76.7549 47.138 77.4917C47.308 78.4364 47.6103 78.6631 47.6103 77.8318C47.6103 77.4539 47.667 77.1138 47.7615 77.0761C47.837 77.0572 48.1015 76.5093 48.3472 75.8858C48.6117 75.2623 49.2351 73.8642 49.7452 72.7685C50.2554 71.6727 50.7466 70.5958 50.841 70.369C50.9355 70.1234 51.0677 69.9345 51.1622 69.9345C51.2378 69.9345 51.8235 71.0114 52.4658 72.3528C54.4118 76.377 54.7897 77.2272 54.7897 77.6051C54.7897 77.794 54.8841 78.0963 54.9786 78.2474C55.1297 78.4741 55.1675 78.4552 55.1864 78.1152C55.2242 77.5484 55.2242 77.5295 55.6021 76.6604C55.7721 76.2637 55.9232 75.9047 55.9232 75.8858C55.9232 75.848 56.2444 75.1112 56.6601 74.2421C57.0568 73.3919 57.6236 72.145 57.907 71.5026L58.436 70.3124L59.9097 70.3124C60.741 70.3124 61.4022 70.369 61.4022 70.4257C61.4022 70.4824 61.2889 70.7658 61.1377 71.0303C60.7599 71.7293 57.548 78.3986 57.2269 79.1543C57.0757 79.4755 56.9057 79.7589 56.8301 79.7589C56.7356 79.7589 56.679 79.8344 56.679 79.9289C56.679 80.0234 56.3011 80.8924 55.8477 81.8371C55.0542 83.4997 54.9975 83.5564 54.7708 83.1407C54.6385 82.8951 54.5441 82.6684 54.563 82.6495C54.6007 82.5739 54.1095 81.4214 53.3727 79.8533C53.0515 79.1354 52.5414 77.9829 52.258 77.3028C51.9746 76.6226 51.6534 75.9236 51.559 75.7535C51.4645 75.5646 51.3889 75.2245 51.3889 74.9978C51.3889 74.3744 51.1055 74.79 50.7277 75.9803C50.5387 76.5471 50.1987 77.4161 49.9531 77.9073C49.7075 78.3986 49.4996 78.9276 49.4996 79.0976C49.4996 79.2488 49.4241 79.381 49.3107 79.381C49.2162 79.381 49.1218 79.4566 49.1218 79.5699C49.1218 79.74 48.1771 81.9127 47.7804 82.6306C47.6859 82.8195 47.6103 83.1029 47.6103 83.2541C47.6103 83.8964 47.2514 83.443 46.6468 82.0827C46.3067 81.2703 45.9666 80.5713 45.91 80.5146C45.8344 80.4579 45.4754 79.7778 45.1165 79.0031C43.3216 75.2245 41.1489 70.8792 41.0356 70.8792C40.96 70.8792 40.79 71.1626 40.6388 71.5026C40.4877 71.8238 39.6753 73.562 38.8251 75.319C37.9749 77.095 37.1247 78.8709 36.9169 79.2865C36.728 79.7022 36.5201 80.08 36.4635 80.1367C36.3312 80.2312 35.9534 81.0247 35.3299 82.4795C34.8765 83.5752 34.7064 83.4997 34.0074 81.8371C33.5351 80.7035 32.9872 79.4566 32.0047 77.3406C31.6458 76.5848 31.3624 75.8102 31.3624 75.6213C31.3624 75.4324 31.3057 75.2434 31.249 75.1679C31.0412 74.96 30.6066 75.2623 30.6066 75.6213C30.6066 75.8291 30.5311 76.1314 30.4366 76.3203C29.9832 77.1516 29.0952 79.2676 29.0952 79.4755C29.0952 79.6077 29.0196 79.7589 28.9441 79.7966C28.8685 79.8344 28.5095 80.5335 28.1694 81.3648C27.2059 83.6319 27.1681 83.6508 26.3746 81.9504C25.9968 81.1569 25.6945 80.4201 25.6945 80.3257C25.6945 80.2123 25.6378 80.1367 25.5433 80.1367C25.4677 80.1367 25.2977 79.8533 25.1466 79.5321C24.4475 77.9262 23.3328 75.6969 23.2006 75.6402C23.125 75.6024 23.0494 75.489 23.0494 75.3946C23.0494 75.1679 21.6325 72.1828 21.1413 71.3704L20.8012 70.8225L18.534 75.489C17.2682 78.0585 16.248 80.2312 16.248 80.3257C16.248 80.4012 16.1724 80.5146 16.0968 80.5524C16.0213 80.5902 15.6623 81.2703 15.3222 82.0827C14.6987 83.5186 14.3587 83.8964 14.3587 83.1596Z" fill="#ffffff" fill-rule="nonzero" opacity="1" stroke="none" vectornator:layerName="path"/>
<path d="M99.6605 83.2352C99.2638 83.1407 98.7725 82.9329 97.6956 82.4228C96.6376 81.9316 95.1262 80.2879 94.7483 79.2488C94.5783 78.7575 94.3516 78.1907 94.2571 78.0207C93.917 77.3595 94.0682 75.5646 94.5783 74.2232C95.2018 72.5795 96.5054 71.2381 98.1869 70.4635C99.1882 70.029 99.6227 69.9345 100.926 69.9345C102.476 69.9345 104.063 70.3313 104.818 70.898C106.897 72.4662 107.879 74.261 107.898 76.5471C107.917 77.6428 107.482 79.4944 107.142 79.7589C107.085 79.8155 106.783 80.2123 106.481 80.6657C106.179 81.1192 105.744 81.5726 105.536 81.6859C105.31 81.7993 105.102 81.9504 105.045 82.0071C104.988 82.0638 104.61 82.2905 104.195 82.4795C103.779 82.6684 103.288 82.914 103.08 83.0085C102.683 83.2163 100.227 83.3674 99.6605 83.2352ZM102.872 80.1934C103.666 79.7778 104.308 78.9276 104.686 77.7751C104.988 76.8493 104.988 76.6793 104.724 75.6024C104.403 74.3744 103.571 73.2975 102.513 72.7685C101.115 72.0505 98.8103 72.7496 97.9224 74.1665C96.6943 76.0936 97.11 78.7386 98.8481 79.9856C99.8494 80.6846 101.758 80.798 102.872 80.1934Z" fill="#ffffff" fill-rule="nonzero" opacity="1" stroke="none" vectornator:layerName="path"/>
<path d="M137.919 83.2163C137.654 83.1785 137.371 83.0462 137.276 82.9518C137.163 82.8573 136.974 82.7817 136.842 82.7817C136.54 82.7817 136.256 82.555 135.33 81.6104C134.461 80.7035 134.008 79.6833 133.762 78.0963C133.649 77.4161 133.517 76.8116 133.498 76.7549C133.347 76.5282 133.97 73.7698 134.348 73.0141C135.349 70.9547 136.955 69.9345 139.241 69.9345C141.15 69.9345 142.189 70.4257 143.114 71.7293C143.36 72.0694 143.379 72.0316 143.398 71.2192L143.398 70.3124L144.815 70.3124L146.232 70.3124L146.232 76.5471L146.232 82.7817L144.834 82.7817L143.417 82.7817L143.36 82.1205L143.303 81.4781L142.642 82.0449C142.283 82.3661 141.697 82.744 141.32 82.8951C140.621 83.1974 138.693 83.3863 137.919 83.2163ZM140.658 80.7035C140.715 80.609 140.923 80.5146 141.112 80.5146C141.584 80.5146 142.699 79.4377 143.077 78.5875C143.454 77.7751 143.511 75.6024 143.171 74.6389C142.718 73.3164 141.452 72.3906 140.092 72.3906C138.845 72.3906 137.541 73.1652 137.258 74.1099C137.182 74.3177 137.05 74.4688 136.955 74.4688C136.861 74.4688 136.785 75.3946 136.785 76.5471C136.785 77.8129 136.861 78.6253 136.974 78.6253C137.088 78.6253 137.163 78.7575 137.163 78.9087C137.163 79.0598 137.39 79.4377 137.692 79.7589C138.429 80.5713 140.356 81.1758 140.658 80.7035Z" fill="#ffffff" fill-rule="nonzero" opacity="1" stroke="none" vectornator:layerName="path"/>
<path d="M164.369 83.1785C162.026 82.6873 159.759 80.5146 159.495 78.5308C159.457 78.2285 159.343 77.8318 159.249 77.6617C159.003 77.1705 159.041 76.3581 159.381 74.9978C159.835 73.2219 160.874 71.4459 161.459 71.4459C161.611 71.4459 161.724 71.3704 161.724 71.257C161.724 71.1626 162.215 70.8414 162.82 70.558C164.256 69.8778 167.071 69.7078 168.525 70.2368L169.47 70.5769L169.47 72.1639L169.47 73.7509L169.054 73.4486C167.996 72.7118 167.279 72.4851 165.975 72.4851C164.898 72.4851 164.52 72.5795 163.972 72.9385C162.801 73.732 162.404 74.5444 162.329 76.2826C162.234 78.3986 162.688 79.3621 164.256 80.269C164.747 80.5524 167.184 80.5902 167.902 80.3068C168.185 80.2123 168.677 79.8911 168.96 79.6077L169.489 79.0976L169.432 80.7791C169.395 82.0449 169.3 82.4983 169.092 82.5928C168.941 82.6684 168.601 82.8384 168.355 82.9518C167.808 83.2541 165.295 83.3863 164.369 83.1785Z" fill="#ffffff" fill-rule="nonzero" opacity="1" stroke="none" vectornator:layerName="path"/>
<path d="M184.868 83.2352C184.566 83.1785 184.131 83.0651 183.923 82.9896C183.715 82.8951 183.413 82.7628 183.262 82.7062C182.242 82.2716 181.675 81.6859 181.146 80.5146C180.617 79.3432 180.428 77.6995 180.428 73.9587L180.428 70.3124L181.845 70.3124L183.262 70.3124L183.262 74.2799C183.262 76.4715 183.338 78.3986 183.432 78.5875C183.526 78.7575 183.697 79.1354 183.791 79.4188C184.074 80.1367 184.906 80.4957 186.323 80.5335C188.269 80.5902 189.1 80.1745 189.459 78.9276C189.516 78.7197 189.591 76.6793 189.629 74.431L189.705 70.3124L191.216 70.3124L192.708 70.3124L192.708 73.6564C192.708 79.5133 191.972 81.5537 189.44 82.7817C188.646 83.1785 186.115 83.4241 184.868 83.2352Z" fill="#ffffff" fill-rule="nonzero" opacity="1" stroke="none" vectornator:layerName="path"/>
<path d="M198.471 83.1785C197.129 82.8384 196.128 82.2338 195.542 81.4403C194.881 80.5146 194.9 80.4579 196.393 79.6833C197.243 79.2299 197.337 79.2299 197.451 79.5321C197.526 79.7022 197.847 80.0989 198.169 80.4012C198.679 80.8924 198.886 80.968 199.963 80.968C201.003 80.9869 201.248 80.9113 201.664 80.5335C201.928 80.269 202.155 79.8722 202.155 79.6266C202.155 79.0598 201.324 78.1907 200.455 77.8696C199.151 77.3972 197.148 76.377 196.657 75.9425C194.673 74.1476 195.637 70.9169 198.395 70.1234C199.491 69.8023 201.777 69.8967 202.627 70.2935C203.496 70.7091 204.233 71.3515 204.233 71.7104C204.233 71.8616 203.836 72.2772 203.345 72.6362L202.438 73.3164L201.947 72.7685C201.399 72.1828 200.398 71.8994 199.661 72.1072C199.132 72.2772 198.376 72.9385 198.376 73.2408C198.376 73.902 199.397 74.6766 201.305 75.4135C204.044 76.4715 204.989 77.4728 204.989 79.2865C204.989 81.6104 203.27 83.1218 200.455 83.2541C199.68 83.2919 198.792 83.273 198.471 83.1785Z" fill="#ffffff" fill-rule="nonzero" opacity="1" stroke="none" vectornator:layerName="path"/>
<path d="M473.269 83.2163C472.589 83.1785 471.966 83.0651 471.871 82.9518C471.758 82.8573 471.323 82.7817 470.908 82.7817C470.473 82.7817 470.076 82.7251 470.001 82.6684C469.944 82.5928 469.34 82.3661 468.659 82.1205C467.979 81.8938 467.11 81.497 466.714 81.2514C465.712 80.6468 464.068 79.2299 463.596 78.5686L463.199 78.0207L463.747 77.5673C464.05 77.3217 464.409 77.1327 464.541 77.1138C464.654 77.1138 464.768 77.0383 464.768 76.9438C464.768 76.8682 465.334 76.4148 466.052 75.9614C466.751 75.5268 467.356 75.0734 467.375 74.9978C467.413 74.9223 467.564 74.8467 467.696 74.8467C467.847 74.8467 468.036 74.6955 468.149 74.5255C468.301 74.2232 468.414 74.2799 469.094 74.9411C470.605 76.4337 473.099 77.3783 475.442 77.3217C476.557 77.3028 477.993 77.0761 477.993 76.9249C477.993 76.8304 478.144 76.7171 478.333 76.6604C478.541 76.5848 478.786 76.3392 478.918 76.0936C479.126 75.7347 479.107 75.5457 478.862 75.0734C478.484 74.3366 477.161 73.8831 473.931 73.3352C473.421 73.2597 472.646 73.0896 472.23 72.9763C471.815 72.8818 471.437 72.7873 471.38 72.7685C469.056 72.3717 466.506 70.5958 465.674 68.8009C465.126 67.6296 464.994 65.2302 465.41 63.851C466.014 61.735 468.017 59.6189 470.095 58.901C470.643 58.7121 471.172 58.4665 471.286 58.3909C471.38 58.2964 471.815 58.2209 472.268 58.2209C472.721 58.2209 473.08 58.1453 473.08 58.0319C473.08 57.9186 474.025 57.843 475.537 57.843C477.048 57.843 477.993 57.9186 477.993 58.0319C477.993 58.1453 478.295 58.2209 478.654 58.2209C479.617 58.2209 483.056 59.3922 483.755 59.9779C483.868 60.0535 484.473 60.5069 485.134 60.9603C485.777 61.4327 486.306 61.8861 486.306 61.9806C486.306 62.1884 485.569 62.8119 483.472 64.4555C483.018 64.8145 482.47 65.2679 482.262 65.4569C482.055 65.6269 481.847 65.7025 481.79 65.6269C481.582 65.3246 479.258 64.2666 478.824 64.2666C478.578 64.2666 478.333 64.191 478.276 64.0777C478.2 63.9643 477.199 63.8888 475.895 63.8888C473.723 63.8888 473.609 63.9076 473.156 64.3611C472.57 64.9657 472.608 65.7025 473.269 66.1748C473.836 66.5904 475.895 67.0817 479.372 67.5918C479.75 67.6673 480.128 67.7807 480.184 67.8752C480.241 67.9696 480.468 68.0452 480.713 68.0452C480.94 68.0452 481.809 68.3853 482.659 68.8009C484.208 69.5566 485.55 70.7847 485.965 71.8238C486.683 73.5431 486.702 76.0747 486.003 77.624C485.852 77.9451 485.739 78.2852 485.739 78.3797C485.739 78.7953 483.415 81.2703 483.018 81.2703C482.961 81.2703 482.489 81.5159 481.96 81.8371C481.45 82.1394 481.015 82.3472 481.015 82.3094C481.015 82.2527 480.713 82.3472 480.335 82.4983C479.957 82.6495 479.447 82.7817 479.183 82.7817C478.937 82.7817 478.578 82.8573 478.408 82.9518C478.012 83.1596 474.913 83.3107 473.269 83.2163Z" fill="#ffffff" fill-rule="nonzero" opacity="1" stroke="none" vectornator:layerName="path"/>
<path d="M62.8003 82.8951C62.0824 82.4983 61.8179 82.215 61.7234 81.6859C61.5723 80.8735 62.0446 79.9667 62.8192 79.6455C63.4049 79.3999 63.556 79.3999 64.0472 79.6644C65.5587 80.439 65.5587 82.1016 64.0094 82.8573C63.3482 83.1974 63.3293 83.1974 62.8003 82.8951Z" fill="#ffffff" fill-rule="nonzero" opacity="1" stroke="none" vectornator:layerName="path"/>
<path d="M173.797 82.8762C172.38 82.1016 172.455 80.269 173.929 79.6455C174.439 79.4377 174.666 79.4188 175.006 79.5888C175.894 80.0423 176.083 80.3634 176.083 81.2892C176.083 82.1016 176.007 82.2527 175.459 82.6684C174.741 83.2163 174.496 83.2541 173.797 82.8762Z" fill="#ffffff" fill-rule="nonzero" opacity="1" stroke="none" vectornator:layerName="path"/>
<path d="M449.559 82.9896C449.502 82.8762 449.067 82.7817 448.614 82.7817C448.161 82.7817 447.726 82.7062 447.669 82.5928C447.613 82.4983 447.424 82.4039 447.254 82.4039C447.103 82.4039 446.441 82.1583 445.799 81.8371C444.42 81.1947 442.852 79.6833 442.209 78.3797C441.151 76.3014 441.076 75.2812 441.114 64.7011L441.151 58.7876L444.93 58.7876L448.708 58.7876L448.708 66.496C448.708 70.728 448.765 74.4877 448.822 74.8845C448.935 75.489 449.445 76.207 450.295 76.8871C450.466 77.0194 451.146 77.1138 451.977 77.1138C453.281 77.1138 453.413 77.0761 454.112 76.4715C454.584 76.0747 454.962 75.5457 455.094 75.0734C455.245 74.5633 455.321 71.9938 455.321 66.5527L455.321 58.7876L459.1 58.7876L462.878 58.7876L462.803 66.8738C462.727 74.79 462.633 76.736 462.293 76.736C462.198 76.736 462.123 76.8871 462.123 77.095C462.123 77.6806 461.216 79.1165 460.158 80.1745C459.156 81.1758 457.116 82.4039 456.436 82.4039C456.247 82.4039 456.077 82.4795 456.077 82.5739C456.077 82.9518 449.785 83.3296 449.559 82.9896Z" fill="#ffffff" fill-rule="nonzero" opacity="1" stroke="none" vectornator:layerName="path"/>
<path d="M85.1507 82.6495C85.0751 82.5928 85.0185 79.7778 85.0185 76.4148L85.0185 70.3124L86.5299 70.3124L88.0413 70.3124L88.0413 71.0681C88.0413 71.4837 88.1358 71.8238 88.2303 71.8238C88.3436 71.8238 88.4192 71.6916 88.4192 71.5215C88.4192 71.1437 89.2316 70.3502 89.8739 70.1045C90.8186 69.7456 93.3314 70.029 93.3314 70.5013C93.3314 70.5769 93.1424 71.1437 92.9157 71.7671C92.4812 72.8629 92.4623 72.8818 92.0089 72.6362C91.4421 72.3528 90.044 72.315 89.5528 72.5795C89.0804 72.8251 88.4759 73.7131 88.3058 74.3933C88.2303 74.6955 88.1358 76.6982 88.098 78.8709L88.0224 82.7817L86.6432 82.7817C85.8875 82.7817 85.2074 82.7251 85.1507 82.6495Z" fill="#ffffff" fill-rule="nonzero" opacity="1" stroke="none" vectornator:layerName="path"/>
<path d="M110.713 76.5471L110.713 70.2935L112.168 70.3502L113.622 70.4068L113.604 71.2192C113.585 71.6538 113.622 72.0127 113.679 72.0127C113.736 72.0127 114.076 71.7104 114.454 71.3137C115.493 70.2935 116.419 69.9345 118.081 69.9345C119.857 69.9345 120.934 70.3879 121.501 71.3515C121.728 71.7104 121.973 72.0127 122.068 72.0127C122.162 72.0127 122.483 71.7671 122.767 71.4648C123.749 70.4068 124.807 69.9723 126.545 69.9345C127.924 69.9156 128.208 69.9723 128.945 70.3879C129.398 70.6524 129.965 71.2003 130.21 71.5782C130.645 72.2772 130.645 72.3717 130.645 77.4917L130.645 82.6873L129.19 82.744L127.717 82.8006L127.717 78.3419C127.717 72.5795 127.641 72.3906 125.185 72.3906C124.032 72.3906 123.9 72.4284 123.371 72.9763C123.069 73.3164 122.729 73.8831 122.615 74.261C122.502 74.6389 122.37 76.6982 122.294 78.8709L122.181 82.7817L120.783 82.7817L119.404 82.7817L119.385 79.0598C119.385 74.5255 119.271 73.6942 118.554 72.9574C118.062 72.4473 117.892 72.3906 116.815 72.3906C115.663 72.3906 115.587 72.4284 114.832 73.1652C114.095 73.902 114.057 73.9965 113.906 75.4702C113.83 76.3203 113.755 78.323 113.755 79.91L113.736 82.7817L112.224 82.7817L110.713 82.7817C110.713 82.7817 110.713 76.5471 110.713 76.5471Z" fill="#ffffff" fill-rule="nonzero" opacity="1" stroke="none" vectornator:layerName="path"/>
<path d="M150.01 76.5471L150.01 70.3124L151.522 70.3124L153.033 70.3124L153.052 71.2192C153.052 72.0505 153.071 72.0694 153.279 71.6349C153.543 71.087 154.035 70.6147 154.79 70.199C155.395 69.8778 157.416 69.8778 158.04 70.199C158.248 70.3124 158.437 70.4068 158.474 70.4257C158.512 70.4446 158.229 71.2003 157.719 72.4095C157.511 72.8629 157.473 72.8818 157.02 72.6551C156.358 72.2961 154.923 72.315 154.412 72.674C153.883 73.033 153.43 73.9776 153.298 74.96C153.241 75.3568 153.147 77.2839 153.09 79.2488L152.995 82.7817L151.503 82.7817L150.01 82.7817C150.01 82.7817 150.01 76.5471 150.01 76.5471Z" fill="#ffffff" fill-rule="nonzero" opacity="1" stroke="none" vectornator:layerName="path"/>
<path d="M485.871 81.6104C486.135 80.8547 486.476 79.9856 486.91 79.0976C487.005 78.8709 487.099 78.5875 487.137 78.4364C487.175 78.2852 487.269 77.9829 487.345 77.7751C487.439 77.5673 488.006 76.0747 488.61 74.4688C489.234 72.8629 490.16 70.4635 490.67 69.1599C491.18 67.8374 491.596 66.7038 491.596 66.6471C491.596 66.5904 491.747 66.1748 491.955 65.7214C492.143 65.2868 492.427 64.5878 492.597 64.1721C492.918 63.322 493.617 61.5082 494.241 59.8834L494.656 58.7876L498.983 58.7876C502.705 58.7876 503.309 58.8254 503.309 59.071C503.309 59.2222 503.385 59.3544 503.479 59.3544C503.574 59.3544 503.687 59.5811 503.744 59.8834C503.819 60.3369 504.934 63.3597 505.387 64.3611C505.482 64.5689 505.728 65.249 505.954 65.8725C506.162 66.496 506.408 67.1761 506.502 67.384C506.597 67.5918 506.767 68.0641 506.899 68.4231C507.031 68.782 507.239 69.3488 507.371 69.6511C507.503 69.9723 507.844 70.8603 508.108 71.6349C508.58 72.9763 508.732 73.3541 509.166 74.3366C509.279 74.5633 509.393 74.9223 509.449 75.1301C509.506 75.3379 510.092 76.9627 510.753 78.7197C511.433 80.4957 511.981 82.0449 512 82.1772C512 82.3472 511.15 82.4039 508.354 82.4039L504.688 82.4039L503.989 80.1934C503.593 78.9654 503.234 77.8318 503.158 77.6806C503.007 77.2839 502.572 75.6969 502.61 75.678C502.686 75.6402 505.312 73.7131 505.482 73.562C505.595 73.4864 505.954 73.203 506.313 72.9574C507.862 71.8616 507.976 71.9183 504.424 71.8238L501.174 71.7293L500.532 69.6511C500.173 68.5175 499.795 67.4028 499.72 67.195C499.625 66.9872 499.455 66.496 499.323 66.1181C499.191 65.7214 499.021 65.4002 498.945 65.4002C498.888 65.4002 498.718 65.7969 498.586 66.3071C498.454 66.7983 498.265 67.2706 498.189 67.384C498.095 67.4784 498.019 67.724 498.019 67.9507C498.019 68.1775 497.944 68.4231 497.868 68.5364C497.774 68.6309 497.49 69.4055 497.245 70.2557L496.791 71.8238L493.542 71.8238C491.426 71.8238 490.273 71.8994 490.273 72.0127C490.273 72.1261 490.424 72.2772 490.613 72.3339C490.783 72.4095 491.444 72.844 492.087 73.3164C492.71 73.7887 493.693 74.5255 494.297 74.9411C494.883 75.3568 495.355 75.7913 495.374 75.9047C495.374 75.9992 495.129 76.8493 494.807 77.7751C494.505 78.7009 494.241 79.6077 494.241 79.7966C494.241 79.9856 494.165 80.1367 494.071 80.1367C493.995 80.1367 493.863 80.4201 493.806 80.7602C493.749 81.0814 493.617 81.5915 493.504 81.8938L493.296 82.4039L489.442 82.4039L485.588 82.4039C485.588 82.4039 485.871 81.6104 485.871 81.6104Z" fill="#ffffff" fill-rule="nonzero" opacity="1" stroke="none" vectornator:layerName="path"/>
<path d="M493.768 82.215C493.825 82.1205 494.278 81.7615 494.77 81.4214C495.261 81.1003 495.695 80.7791 495.752 80.7224C495.979 80.4768 497.66 79.381 497.83 79.381C497.944 79.381 498.019 79.3054 498.019 79.2299C498.019 79.1543 498.265 78.9465 498.548 78.7764C499.039 78.493 499.134 78.4741 499.455 78.7386C499.644 78.8898 500.286 79.3432 500.853 79.7589C501.42 80.1745 501.987 80.5713 502.081 80.6468C502.195 80.7413 502.761 81.1192 503.366 81.5159C503.952 81.9127 504.443 82.2716 504.443 82.3283C504.443 82.3661 502.006 82.4039 499.039 82.4039C495.544 82.4039 493.693 82.3472 493.768 82.215Z" fill="#ffffff" fill-rule="nonzero" opacity="1" stroke="none" vectornator:layerName="path"/>
<path d="M153.506 51.6083C151.012 51.4194 148.518 51.0415 148.386 50.8337C148.329 50.7392 147.989 50.6637 147.63 50.6637C147.271 50.6637 146.987 50.5881 146.987 50.4747C146.987 50.3803 146.817 50.2858 146.591 50.2858C146.383 50.2858 145.476 49.9268 144.569 49.5112C143.19 48.8499 142.661 48.4532 141.32 47.0929C140.432 46.186 139.544 45.1091 139.336 44.6935C139.128 44.2967 138.901 43.9189 138.845 43.8622C138.675 43.7299 137.787 40.8582 137.503 39.5546C137.182 38.0242 137.182 14.1624 137.503 12.6888C138.013 10.3838 138.372 9.09908 138.523 9.09908C138.599 9.09908 138.675 8.96683 138.675 8.81569C138.675 7.81436 140.677 5.0182 142.321 3.71458C144.021 2.37318 147.29 1.01288 149.538 0.691703C149.859 0.653917 150.709 0.521666 151.427 0.389415C152.334 0.238271 157.586 0.124913 168.318 0.0493412C183.451-0.0640168 188.306 0.0115552 191.084 0.408308C191.821 0.521666 192.803 0.653917 193.275 0.710596C193.748 0.767275 194.201 0.899526 194.314 0.993991C194.409 1.08846 194.768 1.16403 195.089 1.16403C195.429 1.16403 195.769 1.25849 195.826 1.35296C195.883 1.46632 196.071 1.54189 196.223 1.54189C196.638 1.54189 198.962 2.67547 199.793 3.29894C201.021 4.22469 202.608 6.00063 203.194 7.172C203.515 7.75768 203.818 8.28668 203.912 8.30558C203.988 8.34336 204.044 8.53229 204.044 8.70233C204.044 8.89126 204.158 9.28801 204.309 9.5903C204.46 9.89259 204.724 10.8561 204.876 11.7441C205.046 12.6321 205.272 13.709 205.367 14.1624C205.48 14.6347 205.556 19.2635 205.556 25.8572C205.556 34.888 205.499 37.004 205.272 38.2699C204.781 40.7826 204.384 42.3507 204.214 42.4641C204.12 42.5208 204.044 42.7664 204.044 43.012C204.044 43.2576 203.988 43.4843 203.912 43.5221C203.818 43.5599 203.553 43.9566 203.307 44.429C202.59 45.7704 201.456 47.1685 200.303 48.132C199.208 49.0389 196.77 50.2858 196.09 50.2858C195.901 50.2858 195.731 50.3803 195.731 50.4747C195.731 50.5881 195.448 50.6637 195.108 50.6637C194.768 50.6637 194.409 50.7392 194.295 50.8337C194.201 50.9282 193.2 51.1549 192.047 51.3438C190.215 51.6272 188.004 51.665 172.682 51.7028C163.179 51.7406 154.545 51.6839 153.506 51.6083ZM182.336 38.2888C184.49 37.9676 185.907 37.4386 186.965 36.5884C187.834 35.8704 188.93 33.9245 188.93 33.0932C188.93 32.7909 189.024 32.4886 189.119 32.4319C189.383 32.2808 189.383 19.5469 189.119 19.3958C189.024 19.3391 188.93 18.999 188.93 18.64C188.93 18.2811 188.854 17.9599 188.76 17.9032C188.665 17.8465 188.533 17.582 188.476 17.3175C188.401 17.053 188.117 16.5051 187.834 16.1084C186.663 14.4647 184.263 13.5767 180.05 13.2555C177.254 13.0666 165.503 13.0477 162.669 13.2555C160.383 13.4256 157.794 13.8979 157.492 14.2002C157.379 14.3135 157.152 14.3891 156.963 14.3891C155.943 14.3891 153.789 17.2042 153.789 18.5456C153.789 18.8101 153.694 19.1313 153.581 19.2446C153.298 19.528 153.298 32.2997 153.581 32.5831C153.694 32.6964 153.789 32.9987 153.808 33.2821C153.808 33.5466 154.035 34.2268 154.318 34.7935C155.281 36.7584 157.435 37.9676 160.685 38.3643C161.422 38.4588 166.183 38.5344 171.265 38.5533C178.463 38.5721 180.919 38.5155 182.336 38.2888Z" fill="#ffffff" fill-rule="nonzero" opacity="1" stroke="none" vectornator:layerName="path"/>
<path d="M466.222 51.5894C465.202 51.495 463.804 51.2871 463.105 51.136C462.406 50.9659 461.631 50.8148 461.386 50.7581C461.121 50.7203 460.743 50.607 460.535 50.4936C460.309 50.3992 459.477 50.0024 458.646 49.6057C457.418 49.0389 455.699 47.8675 454.83 46.9984C453.432 45.5814 451.41 42.1618 451.07 40.5559C450.314 37.1552 450.333 37.4764 450.314 26.2917C450.314 14.0868 450.333 13.8412 451.561 10.3082C452.053 8.89126 453.054 6.83192 453.262 6.83192C453.356 6.83192 453.432 6.69967 453.432 6.54853C453.432 6.15178 455.888 3.79015 456.757 3.33672C457.154 3.1289 457.532 2.92108 457.588 2.8644C457.72 2.69436 458.873 2.20314 459.95 1.82528C460.479 1.65525 461.046 1.42853 461.216 1.33406C461.405 1.2396 461.782 1.16403 462.085 1.16403C462.368 1.16403 462.689 1.08846 462.784 0.993991C462.897 0.880633 463.407 0.767275 463.917 0.710596C464.446 0.653917 465.297 0.502773 465.807 0.389415C466.487 0.219378 473.099 0.143806 489.007 0.0871272L511.244 0.0115552L511.244 6.54853L511.244 13.0666L494.373 13.0666C474.403 13.0666 472.136 13.18 469.793 14.2947C468.112 15.0882 467.583 15.7872 466.997 17.9221C466.619 19.2824 466.6 19.8681 466.581 25.7249C466.562 32.3752 466.657 33.2443 467.526 35.0958C468.187 36.4939 469.68 37.5141 472.004 38.1376C473.062 38.421 475.083 38.4588 492.314 38.5155L511.433 38.591L511.433 45.1847L511.433 51.7972L489.763 51.7783C477.823 51.7595 467.243 51.665 466.222 51.5894Z" fill="#ffffff" fill-rule="nonzero" opacity="1" stroke="none" vectornator:layerName="path"/>
<path d="M379.938 38.5721L379.938 25.7249L400.985 25.7249C414.833 25.7249 422.088 25.6682 422.164 25.536C422.221 25.4415 422.409 25.3471 422.579 25.3471C423.127 25.3471 424.148 24.3835 424.658 23.4011C425.111 22.4942 425.149 22.2486 425.149 19.9626C425.13 17.242 425.149 17.2797 424.582 16.0895C424.091 15.0693 423.524 14.3891 423.165 14.3891C423.014 14.3891 422.806 14.2947 422.712 14.2002C422.598 14.0868 422.315 13.9357 422.05 13.8601C421.805 13.8034 412.226 13.709 400.777 13.6901L379.938 13.6334L379.938 7.11532L379.938 0.578345L402.005 0.616131C414.134 0.653917 424.903 0.729489 425.942 0.805061C429.324 1.08846 430.099 1.18292 430.477 1.35296C430.685 1.44742 431.421 1.65525 432.102 1.80639C434.577 2.37318 437.203 3.9224 438.506 5.58499C440.509 8.21111 441.567 12.1786 441.567 17.2231C441.567 20.4349 440.849 25.3471 440.358 25.3471C440.282 25.3471 440.207 25.4793 440.207 25.6304C440.207 25.9516 439.564 27.293 439.205 27.7465C438.563 28.5211 437.127 29.8814 436.919 29.8814C436.863 29.8814 436.39 30.1459 435.861 30.4482C435.332 30.7693 434.728 31.015 434.539 31.015C434.331 31.015 434.161 31.1094 434.161 31.2039C434.161 31.3172 434.293 31.3928 434.463 31.3928C435.03 31.3928 437.24 32.6209 438.147 33.4333C439.092 34.2834 440.207 35.776 440.207 36.1916C440.207 36.305 440.301 36.5128 440.396 36.6073C440.943 37.1552 441.151 39.4601 441.151 45.4303L441.151 51.4194L433.122 51.4194L425.092 51.4194L425.092 46.3183C425.092 43.0498 425.017 41.2172 424.903 41.2172C424.809 41.2172 424.714 41.066 424.714 40.8582C424.714 40.0836 423.316 38.95 422.334 38.95C422.088 38.95 421.843 38.8744 421.786 38.7611C421.71 38.6288 417.195 38.5721 408.825 38.5721L395.997 38.5721L395.997 44.9958L395.997 51.4194L387.968 51.4194L379.938 51.4194C379.938 51.4194 379.938 38.5721 379.938 38.5721Z" fill="#ffffff" fill-rule="nonzero" opacity="1" stroke="none" vectornator:layerName="path"/>
<path d="M3.22183e-14 38.4777L3.22183e-14 25.7249L20.0077 25.7249L40.0154 25.7249L41.13 25.1581C41.7346 24.8558 42.3392 24.4024 42.4525 24.1757C43.3405 22.4753 43.3405 22.4753 43.3594 19.7736C43.3594 18.0166 43.2649 16.883 43.0949 16.4107C42.8115 15.5794 41.848 14.3891 41.4512 14.3891C41.3001 14.3891 41.1867 14.3324 41.1867 14.238C41.1867 13.6901 38.9196 13.6334 19.592 13.6334L0 13.6334L0 7.02085L0 0.389415L21.1224 0.464987C42.0936 0.540559 46.2123 0.635024 46.8735 0.975098C47.0624 1.08846 47.497 1.16403 47.8559 1.16403C48.2149 1.16403 48.8195 1.29628 49.1973 1.44742C49.5752 1.59857 49.8775 1.69303 49.8775 1.65525C49.8775 1.59857 50.501 1.82528 51.2567 2.14646C54.9597 3.71458 57.5292 6.64299 58.7383 10.705C58.8706 11.1206 58.9839 11.6685 59.0028 11.933C59.0028 12.1975 59.0784 12.4431 59.1539 12.4998C59.4185 12.6888 59.7018 16.5807 59.7018 19.8681C59.7018 23.4011 59.3996 27.1041 59.1162 27.1986C59.0217 27.2364 58.9461 27.6331 58.9461 28.0865C58.9461 28.54 58.8706 28.9556 58.7761 29.0123C58.7005 29.069 58.5683 29.409 58.5116 29.7869C58.4549 30.1459 58.0959 31.0905 57.737 31.8462C57.3591 32.6209 57.0568 33.3388 57.0568 33.4521C57.0568 33.5655 56.9813 33.66 56.9057 33.66C56.8301 33.66 56.49 34 56.1689 34.4346C55.4698 35.3414 53.5994 36.834 52.9759 36.9851C52.7303 37.0607 52.5225 37.1741 52.5225 37.2496C52.5225 37.4764 50.1042 38.1943 48.5739 38.4021C47.7804 38.5155 46.8735 38.6666 46.5523 38.78C46.2123 38.8744 39.7508 38.95 30.9278 38.95L15.8701 38.95L15.8701 45.0902L15.8701 51.2304L7.93506 51.2304L3.22183e-14 51.2304L3.22183e-14 38.4777Z" fill="#ffffff" fill-rule="nonzero" opacity="1" stroke="none" vectornator:layerName="path"/>
<path d="M67.448 38.4777L67.448 25.7249L88.4003 25.7249C100.114 25.7249 109.409 25.6493 109.466 25.5549C109.523 25.4793 109.825 25.3471 110.108 25.2904C110.94 25.1203 111.752 24.3268 112.224 23.231C112.602 22.3431 112.659 21.9274 112.659 19.6792C112.64 17.7143 112.583 16.9964 112.338 16.5618C112.168 16.2595 112.035 15.9195 112.035 15.8061C112.017 15.4471 110.977 14.4647 110.241 14.1057C109.504 13.7468 108.899 13.7279 88.4759 13.6712L67.448 13.6334L67.448 7.00196L67.448 0.389415L89.4205 0.48388C111.658 0.578345 115.379 0.653917 115.701 0.975098C115.814 1.08846 116.343 1.16403 116.891 1.16403C117.439 1.16403 118.043 1.2396 118.232 1.33406C118.402 1.42853 119.101 1.65525 119.782 1.82528C121.293 2.22203 122.786 2.88329 124.089 3.75237C126.016 5.0182 127.717 7.75768 128.378 10.6294C129.568 15.8439 129.209 22.6076 127.565 26.1028C126.999 27.3308 126.054 28.6155 125.317 29.1823C125.034 29.409 124.75 29.6358 124.694 29.6924C124.486 29.9003 122.672 30.7882 122.2 30.9016C121.501 31.0527 121.52 31.3928 122.219 31.3928C122.521 31.3928 122.804 31.4495 122.842 31.544C122.88 31.6195 123.39 31.9218 123.995 32.2241C126.3 33.3766 127.943 35.6815 128.453 38.4588C128.567 39.12 128.661 42.0296 128.661 45.4114L128.661 51.2304L120.632 51.2304L112.602 51.2304L112.602 46.3372C112.602 43.6355 112.527 41.3872 112.432 41.3305C112.338 41.2738 112.205 40.9904 112.13 40.7071C111.979 40.1025 111.336 39.3279 110.959 39.3279C110.826 39.3279 110.713 39.2712 110.713 39.1767C110.713 39.1011 110.259 38.9122 109.73 38.7611C108.918 38.5533 106.33 38.4777 96.1275 38.421L83.507 38.3643L83.507 44.7879L83.507 51.2304L75.4775 51.2304L67.448 51.2304C67.448 51.2304 67.448 38.4777 67.448 38.4777Z" fill="#ffffff" fill-rule="nonzero" opacity="1" stroke="none" vectornator:layerName="path"/>
<path d="M214.246 25.8194L214.246 0.408308L225.79 0.446094C235.841 0.502773 237.372 0.540559 237.523 0.786168C240.149 5.30159 242.964 10.3082 242.964 10.4405C242.964 10.535 243.039 10.6105 243.115 10.6105C243.191 10.6105 243.361 10.8372 243.474 11.1395C243.701 11.6685 244.494 13.0855 244.664 13.2555C244.759 13.35 245.042 13.8601 246.006 15.7116C246.251 16.184 246.516 16.5996 246.572 16.6563C246.629 16.713 246.894 17.1286 247.139 17.6009C247.404 18.0733 247.8 18.7534 248.008 19.1124C248.821 20.4916 250.578 23.59 251.107 24.5347C251.938 26.065 252.127 26.3862 252.221 26.4806C252.354 26.6129 253.298 28.3133 253.695 29.1257C253.865 29.4846 254.111 29.8814 254.224 30.0136C254.337 30.127 254.545 30.4859 254.677 30.8071C254.961 31.5062 255.112 31.544 255.395 30.9772C255.509 30.7316 255.83 30.2026 256.094 29.7869C256.359 29.3713 256.623 28.8989 256.699 28.7478C256.775 28.5966 257.304 27.652 257.889 26.6696C258.475 25.6871 259.004 24.7425 259.08 24.5913C259.155 24.4402 259.325 24.1379 259.457 23.9301C259.93 23.1744 261.158 21.0772 261.479 20.5293C261.649 20.2271 262.254 19.169 262.82 18.2055C263.387 17.2609 263.992 16.2028 264.162 15.8817C264.332 15.5605 264.766 14.8048 265.125 14.2191C265.711 13.2555 268.186 9.02351 269.754 6.30292C270.094 5.71724 270.415 5.07488 270.491 4.90484C270.548 4.71591 270.661 4.56477 270.755 4.56477C270.85 4.56477 270.925 4.48919 270.925 4.37584C270.925 4.28137 271.417 3.37451 272.04 2.35429L273.155 0.502773L284.547 0.502773L295.959 0.502773L295.959 19.5847C295.959 30.0892 295.94 41.5006 295.902 44.958L295.845 51.2304L288.156 51.1927L280.466 51.136L280.466 33.9811C280.466 24.5535 280.41 16.8452 280.334 16.8452C280.259 16.8452 279.862 17.4876 279.427 18.2622C278.993 19.0368 278.539 19.7925 278.426 19.9059C278.294 20.0381 278.048 20.4538 277.878 20.8127C277.481 21.6251 276.537 23.3255 276.404 23.4578C276.291 23.5711 275.932 24.1946 275.403 25.2148C275.195 25.6493 274.95 26.0461 274.874 26.1028C274.817 26.1595 274.572 26.5373 274.345 26.953C274.118 27.3686 273.552 28.351 273.098 29.1257C272.626 29.9003 272.002 31.015 271.681 31.5817C271.379 32.1485 270.925 32.942 270.699 33.3199C270.302 33.9623 267.506 38.78 267.034 39.6113C266.92 39.8191 266.505 40.537 266.089 41.2172C265.692 41.8973 265.258 42.6152 265.125 42.8231C265.012 43.0309 264.729 43.541 264.502 43.9566C264.294 44.3723 263.784 45.2603 263.368 45.9215C262.65 47.0551 262.178 47.8675 260.874 50.248L260.308 51.2304L255.055 51.2304L249.803 51.2304L249.387 50.5314C249.142 50.1347 248.764 49.4734 248.537 49.0578C248.292 48.6421 247.668 47.5841 247.139 46.6961C246.629 45.8082 245.968 44.6368 245.684 44.1078C245.401 43.5599 245.099 43.1065 245.004 43.1065C244.929 43.1065 244.853 42.9931 244.853 42.842C244.853 42.6908 244.437 41.8784 243.908 41.0282C243.398 40.178 242.964 39.3657 242.964 39.2334C242.964 39.1011 242.888 38.95 242.794 38.9122C242.699 38.8933 242.397 38.4399 242.133 37.9109C241.849 37.4008 241.434 36.664 241.207 36.2672C240.697 35.4359 239.62 33.5844 239.185 32.8098C238.996 32.5075 238.6 31.7896 238.259 31.2417C237.938 30.6938 237.674 30.1648 237.674 30.0703C237.674 29.9569 237.598 29.8814 237.485 29.8814C237.39 29.8814 237.296 29.7113 237.296 29.5224C237.296 29.3146 237.22 29.1257 237.126 29.0879C237.031 29.0501 236.748 28.6155 236.465 28.0865C236.181 27.5764 235.52 26.424 235.01 25.536C234.481 24.648 233.857 23.59 233.612 23.1744C233.385 22.7587 232.932 21.9652 232.592 21.4173C232.27 20.8694 232.006 20.3404 232.006 20.2459C232.006 20.1326 231.949 20.057 231.874 20.057C231.779 20.057 231.439 19.4713 231.08 18.7534C230.721 18.0355 230.268 17.242 230.079 16.9964C229.758 16.5807 229.739 17.2042 229.739 33.9056L229.739 51.2304L221.993 51.2304L214.246 51.2304C214.246 51.2304 214.246 25.8194 214.246 25.8194Z" fill="#ffffff" fill-rule="nonzero" opacity="1" stroke="none" vectornator:layerName="path"/>
<path d="M300.871 50.5314C301.041 50.1347 301.381 49.4734 301.608 49.0578C301.853 48.6421 302.307 47.8297 302.609 47.2629C302.93 46.6961 304.253 44.2589 305.575 41.8406C306.879 39.4223 307.956 37.363 307.956 37.2496C307.956 37.1552 308.05 37.0607 308.145 37.0607C308.258 37.0607 308.334 36.9851 308.334 36.8907C308.334 36.8151 308.674 36.1161 309.108 35.3414C309.902 33.8867 310.714 32.413 311.413 31.1094C311.64 30.6938 311.885 30.3159 311.942 30.2592C311.999 30.2026 312.244 29.7869 312.471 29.3146C312.698 28.8423 313.189 27.9543 313.548 27.3308C313.907 26.7073 314.36 25.8383 314.549 25.4226C314.757 24.9881 315.116 24.3079 315.381 23.9112C315.626 23.4955 316.401 22.0786 317.119 20.7183C317.818 19.3769 318.46 18.1866 318.536 18.0733C318.725 17.8088 319.821 15.825 320.406 14.6725C320.671 14.1624 320.935 13.6901 320.992 13.6334C321.049 13.5767 321.332 13.0666 321.634 12.4998C321.937 11.933 322.39 11.0828 322.654 10.6105C324.053 8.13554 324.582 7.13421 324.582 7.00196C324.582 6.9075 324.676 6.83192 324.77 6.83192C324.884 6.83192 324.959 6.73746 324.959 6.64299C324.959 6.52964 325.696 5.09377 326.603 3.43119L328.228 0.408308L338.185 0.408308L348.16 0.408308L348.859 1.7686C349.237 2.52432 350.238 4.39473 351.051 5.92506C351.863 7.45539 352.543 8.7779 352.543 8.89126C352.543 9.00462 352.6 9.09908 352.694 9.09908C352.77 9.09908 352.921 9.28801 353.015 9.53362C353.374 10.2704 354.508 12.4054 354.621 12.4998C354.678 12.5565 355.132 13.4067 355.623 14.3891C356.586 16.2973 357.833 18.6589 358.627 20.057C359.25 21.1528 360.289 23.0799 361.48 25.3471C362.009 26.3295 363.104 28.3699 363.917 29.8625C364.729 31.3739 365.39 32.6586 365.39 32.7531C365.39 32.8287 365.485 32.9042 365.579 32.9042C365.693 32.9042 365.768 33.0743 365.768 33.2632C365.768 33.471 365.825 33.66 365.919 33.6978C365.995 33.7355 366.241 34.1323 366.486 34.6046C366.94 35.4926 368.621 38.6477 369.83 40.9338C370.227 41.6706 370.756 42.6341 371.021 43.1065C371.776 44.4668 372.929 46.6583 373.968 48.6799C374.497 49.719 374.988 50.607 375.083 50.6259C375.158 50.6637 375.215 50.8148 375.215 50.9659C375.215 51.1927 373.892 51.2304 366.543 51.2304L357.871 51.2304L357.266 50.1535C356.492 48.7366 355.094 46.1293 353.922 43.8622C353.412 42.8797 352.808 41.7651 352.6 41.4061C352.392 41.0471 351.939 40.1969 351.58 39.5168C351.24 38.8366 350.899 38.251 350.843 38.1943C350.767 38.1376 350.541 37.722 350.314 37.2496C350.087 36.7773 349.671 35.9838 349.369 35.4548C349.086 34.9447 348.217 33.3199 347.442 31.8651C346.686 30.4104 345.912 28.9934 345.723 28.71C345.515 28.4455 345.364 28.0865 345.364 27.9354C345.364 27.7654 345.288 27.6142 345.213 27.5764C345.137 27.5386 344.703 26.8018 344.249 25.9138C343.796 25.0259 343.361 24.2702 343.305 24.2135C343.21 24.1379 342.662 23.0988 340.508 18.9234C340.225 18.3566 339.942 17.8465 339.885 17.7899C339.79 17.6954 338.638 15.5416 338.298 14.8237C337.958 14.1246 337.882 14.2191 336.616 16.5618C336.39 16.9775 336.163 17.3553 336.106 17.412C336.05 17.4687 335.785 17.941 335.521 18.4511C335.256 18.9801 334.67 20.0759 334.236 20.9072C333.782 21.7385 332.781 23.59 332.025 25.007C331.251 26.424 330.627 27.6709 330.627 27.7654C330.627 27.8787 330.552 27.9921 330.476 28.0299C330.382 28.0676 329.947 28.8045 329.475 29.6924C329.021 30.5804 328.587 31.3361 328.511 31.355C328.436 31.3928 328.36 31.5062 328.36 31.5817C328.36 31.6762 327.869 32.6775 327.264 33.7922C326.112 35.9271 324.752 38.421 323.731 40.367C323.391 40.9904 322.957 41.8028 322.749 42.1618C322.088 43.3332 320.576 46.1482 319.273 48.6799L318.007 51.136L309.297 51.1927L300.587 51.2304L300.871 50.5314Z" fill="#ffffff" fill-rule="nonzero" opacity="1" stroke="none" vectornator:layerName="path"/>
</g>
</g>
</svg>
