<?xml version="1.0" encoding="UTF-8" standalone="no"?>
<!DOCTYPE svg PUBLIC "-//W3C//DTD SVG 1.1//EN" "http://www.w3.org/Graphics/SVG/1.1/DTD/svg11.dtd">
<!-- Created with Vectornator (http://vectornator.io/) -->
<svg height="1024.0px" stroke-miterlimit="10" style="fill-rule:nonzero;clip-rule:evenodd;stroke-linecap:round;stroke-linejoin:round;" version="1.1" viewBox="0 0 1024 1024" width="1024.0px" xml:space="preserve" xmlns="http://www.w3.org/2000/svg" xmlns:xlink="http://www.w3.org/1999/xlink">
<defs/>
<clipPath id="ArtboardFrame">
<rect height="1024" width="1024" x="0" y="0"/>
</clipPath>
<g clip-path="url(#ArtboardFrame)" id="Layer-1">
<g opacity="1">
<path d="M924.392 171.147C910.295 156.399 887.087 155.748 872.338 169.846C857.59 183.944 856.939 207.585 871.037 222.117L900.968 253.783L748.927 253.783C715.96 253.783 683.643 267.013 660.652 290.655L276.971 681.71C267.644 691.254 254.631 696.242 241.4 696.242L36.8716 696.242C16.4838 696.242-1.13687e-13 712.726-1.13687e-13 733.114C-1.13687e-13 753.502 16.4838 769.985 36.8716 769.985L241.617 769.985C274.585 769.985 306.902 756.755 329.892 733.114L713.357 342.058C722.683 332.515 735.697 327.526 748.927 327.526L900.968 327.526L871.037 358.542C856.939 373.29 857.59 396.498 872.338 410.596C879.496 417.319 888.605 420.79 897.715 420.79C907.475 420.79 917.235 416.886 924.392 409.294L1013.75 315.597C1027.42 301.282 1027.42 278.942 1013.75 264.628L924.392 171.147Z" fill="#ffffff" fill-rule="nonzero" opacity="1" stroke="none"/>
<path d="M36.8716 327.526L242.051 327.526C255.282 327.526 267.861 332.515 277.188 341.841L404.503 468.723C411.66 475.88 421.204 479.35 430.53 479.35C440.073 479.35 449.4 475.663 456.557 468.506C470.872 454.191 470.872 430.767 456.557 416.452L329.242 289.787C305.817 266.58 274.802 254 241.834 254L36.8716 254C16.4838 254-1.13687e-13 270.484-1.13687e-13 290.872C-1.13687e-13 311.259 16.4838 327.526 36.8716 327.526Z" fill="#ffffff" fill-rule="nonzero" opacity="1" stroke="none"/>
<path d="M924.392 614.474C910.295 599.725 887.087 599.075 872.338 613.173C857.59 627.271 856.939 650.261 871.037 665.01L900.968 696.025L748.276 696.025C735.046 696.025 722.466 691.037 713.14 681.71L583.439 552.877C569.124 538.562 545.7 538.562 531.385 553.094C517.07 567.408 517.07 590.833 531.385 605.365L660.869 734.415C684.293 757.622 715.309 770.202 748.276 770.202L900.968 770.202L871.037 801.868C856.939 816.617 857.59 840.041 872.338 854.139C879.496 860.863 888.605 864.333 897.715 864.333C907.475 864.333 917.235 860.429 924.392 852.838L1013.75 759.141C1027.42 744.826 1027.42 722.486 1013.75 708.171L924.392 614.474Z" fill="#ffffff" fill-rule="nonzero" opacity="1" stroke="none"/>
</g>
</g>
</svg>
