<?xml version="1.0" encoding="UTF-8" standalone="no"?>
<!DOCTYPE svg PUBLIC "-//W3C//DTD SVG 1.1//EN" "http://www.w3.org/Graphics/SVG/1.1/DTD/svg11.dtd">
<!-- Created with Vectornator (http://vectornator.io/) -->
<svg height="1024.0px" stroke-miterlimit="10" style="fill-rule:nonzero;clip-rule:evenodd;stroke-linecap:round;stroke-linejoin:round;" version="1.1" viewBox="0 0 1024 1024" width="1024.0px" xml:space="preserve" xmlns="http://www.w3.org/2000/svg" xmlns:xlink="http://www.w3.org/1999/xlink">
<defs/>
<clipPath id="ArtboardFrame">
<rect height="1024" width="1024" x="0" y="0"/>
</clipPath>
<g clip-path="url(#ArtboardFrame)" id="Layer-1">
<g opacity="1">
<path d="M641.434 74.9546L509.769 240.401C495.226 258.675 498.251 285.28 516.526 299.823C534.8 314.366 561.405 311.341 575.948 293.067L707.613 127.621C751.243 72.7965 831.055 63.7219 885.879 107.352C940.703 150.982 949.778 230.794 906.148 285.618L695.484 550.332C668.973 583.589 627.561 601.35 585.193 597.633C542.825 593.915 505.138 569.215 484.823 531.85C477.957 517.955 464.04 508.928 448.553 508.326C433.065 507.724 418.49 515.643 410.566 528.964C402.642 542.284 402.64 558.872 410.561 572.194C444.419 634.47 507.231 675.637 577.844 681.832C648.458 688.027 717.478 658.427 761.663 602.998L972.327 338.284C1045.04 246.911 1029.92 113.89 938.545 41.1733C847.172-31.5432 714.151-16.4188 641.434 74.9546Z" fill="#000000" fill-rule="nonzero" opacity="1" stroke="none"/>
<path d="M379.489 947.403L511.154 781.957C525.697 763.682 522.672 737.078 504.397 722.535C486.123 707.991 459.518 711.016 444.975 729.291L313.31 894.737C269.68 949.561 189.868 958.636 135.044 915.006C80.2196 871.376 71.1449 791.563 114.775 736.739L325.439 472.025C369.069 417.201 448.881 408.127 503.705 451.757C518.483 463.491 530.456 478.374 538.754 495.322C544.647 510.015 558.252 520.186 574.012 521.68C589.772 523.174 605.046 515.741 613.595 502.417C622.144 489.094 622.536 472.111 614.61 458.408C582.793 393.229 519.789 348.906 447.693 340.984C375.597 333.061 304.471 362.645 259.26 419.359L48.5964 684.073C-24.1201 775.447-8.99575 908.468 82.3776 981.184C173.751 1053.9 306.772 1038.78 379.489 947.403Z" fill="#000000" fill-rule="nonzero" opacity="1" stroke="none"/>
</g>
</g>
</svg>
