<?xml version="1.0" encoding="UTF-8" standalone="no"?>
<!DOCTYPE svg PUBLIC "-//W3C//DTD SVG 1.1//EN" "http://www.w3.org/Graphics/SVG/1.1/DTD/svg11.dtd">
<!-- Created with Vectornator (http://vectornator.io/) -->
<svg height="100%" stroke-miterlimit="10" style="fill-rule:nonzero;clip-rule:evenodd;stroke-linecap:round;stroke-linejoin:round;" version="1.1" viewBox="0 0 128 128" width="100%" xml:space="preserve" xmlns="http://www.w3.org/2000/svg" xmlns:vectornator="http://vectornator.io" xmlns:xlink="http://www.w3.org/1999/xlink">
<defs/>
<g id="Untitled" vectornator:layerName="Untitled">
<g opacity="1" vectornator:layerName="noun-day-4988723.svg">
<path d="M26.6667 64C26.6667 43.3814 43.3814 26.6667 64 26.6667C84.6186 26.6667 101.333 43.3814 101.333 64C101.333 84.6186 84.6186 101.333 64 101.333C43.3814 101.333 26.6667 84.6186 26.6667 64Z" fill="#ffffff" fill-rule="nonzero" opacity="1" stroke="none" vectornator:layerName="circle"/>
<path d="M64 18.6667C61.0546 18.6667 58.6667 16.2788 58.6667 13.3333L58.6667 5.33333C58.6667 2.38791 61.0546 0 64 0C66.9454 0 69.3333 2.38791 69.3333 5.33333L69.3333 13.3333C69.3333 16.2788 66.9454 18.6667 64 18.6667Z" fill="#ffffff" fill-rule="nonzero" opacity="1" stroke="none" vectornator:layerName="path"/>
<path d="M64 128C61.0546 128 58.6667 125.612 58.6667 122.667L58.6667 114.667C58.6667 111.721 61.0546 109.333 64 109.333C66.9454 109.333 69.3333 111.721 69.3333 114.667L69.3333 122.667C69.3333 125.612 66.9454 128 64 128Z" fill="#ffffff" fill-rule="nonzero" opacity="1" stroke="none" vectornator:layerName="path"/>
<path d="M122.667 69.3333L114.667 69.3333C111.721 69.3333 109.333 66.9454 109.333 64C109.333 61.0546 111.721 58.6667 114.667 58.6667L122.667 58.6667C125.612 58.6667 128 61.0546 128 64C128 66.9454 125.612 69.3333 122.667 69.3333Z" fill="#ffffff" fill-rule="nonzero" opacity="1" stroke="none" vectornator:layerName="path"/>
<path d="M13.3333 69.3333L5.33333 69.3333C2.38791 69.3333 0 66.9454 0 64C0 61.0546 2.38791 58.6667 5.33333 58.6667L13.3333 58.6667C16.2788 58.6667 18.6667 61.0546 18.6667 64C18.6667 66.9454 16.2788 69.3333 13.3333 69.3333Z" fill="#ffffff" fill-rule="nonzero" opacity="1" stroke="none" vectornator:layerName="path"/>
<path d="M26.6126 31.946C25.2487 31.946 23.8834 31.4254 22.8423 30.3829L17.1833 24.7239C15.0997 22.6404 15.0997 19.2654 17.1833 17.1819C19.2668 15.0983 22.6418 15.0983 24.7253 17.1819L30.3844 22.8409C32.4679 24.9244 32.4679 28.2994 30.3844 30.3829C29.3433 31.424 27.978 31.946 26.614 31.946L26.6126 31.946Z" fill="#ffffff" fill-rule="nonzero" opacity="1" stroke="none" vectornator:layerName="path"/>
<path d="M107.046 112.38C105.682 112.38 104.317 111.859 103.276 110.817L97.6171 105.158C95.5335 103.074 95.5335 99.6992 97.6171 97.6156C99.7006 95.5321 103.076 95.5321 105.159 97.6156L110.818 103.275C112.902 105.358 112.902 108.733 110.818 110.817C109.777 111.858 108.412 112.38 107.048 112.38L107.046 112.38Z" fill="#ffffff" fill-rule="nonzero" opacity="1" stroke="none" vectornator:layerName="path"/>
<path d="M101.387 31.946C100.023 31.946 98.6581 31.4254 97.6171 30.3829C95.5335 28.2994 95.5335 24.9244 97.6171 22.8409L103.276 17.1819C105.36 15.0983 108.735 15.0983 110.818 17.1819C112.902 19.2654 112.902 22.6404 110.818 24.7239L105.159 30.3829C104.118 31.424 102.753 31.946 101.389 31.946L101.387 31.946Z" fill="#ffffff" fill-rule="nonzero" opacity="1" stroke="none" vectornator:layerName="path"/>
<path d="M20.9536 112.38C19.5897 112.38 18.2244 111.859 17.1833 110.817C15.0997 108.733 15.0997 105.358 17.1833 103.275L22.8423 97.6156C24.9259 95.5321 28.3008 95.5321 30.3844 97.6156C32.4679 99.6992 32.4679 103.074 30.3844 105.158L24.7253 110.817C23.6843 111.858 22.3189 112.38 20.955 112.38L20.9536 112.38Z" fill="#ffffff" fill-rule="nonzero" opacity="1" stroke="none" vectornator:layerName="path"/>
</g>
</g>
</svg>
