<?xml version="1.0" encoding="UTF-8" standalone="no"?>
<!DOCTYPE svg PUBLIC "-//W3C//DTD SVG 1.1//EN" "http://www.w3.org/Graphics/SVG/1.1/DTD/svg11.dtd">
<!-- Created with Vectornator (http://vectornator.io/) -->
<svg height="100%" stroke-miterlimit="10" style="fill-rule:nonzero;clip-rule:evenodd;stroke-linecap:round;stroke-linejoin:round;" version="1.1" viewBox="0 0 128 128" width="100%" xml:space="preserve" xmlns="http://www.w3.org/2000/svg" xmlns:vectornator="http://vectornator.io" xmlns:xlink="http://www.w3.org/1999/xlink">
<defs/>
<g id="Untitled" vectornator:layerName="Untitled">
<g opacity="1" vectornator:layerName="Group 1">
<path d="M84.8046 89.3981C78.8536 89.3981 74.0126 94.2392 74.0126 100.19C74.0126 106.141 78.8536 110.982 84.8046 110.982C90.7555 110.982 95.5966 106.141 95.5966 100.19C95.5966 94.2392 90.7555 89.3981 84.8046 89.3981Z" fill="#000000" fill-rule="nonzero" opacity="1" stroke="none" vectornator:layerName="path"/>
<path d="M90.9274 45.3978C96.8784 45.3978 101.721 40.5567 101.721 34.6058C101.721 28.6549 96.8784 23.8138 90.9274 23.8138C84.9765 23.8138 80.1355 28.6549 80.1355 34.6058C80.1355 40.5567 84.9765 45.3978 90.9274 45.3978Z" fill="#000000" fill-rule="nonzero" opacity="1" stroke="none" vectornator:layerName="path"/>
<path d="M47.5543 83.0368C41.6033 83.0368 36.7623 87.8779 36.7623 93.8288C36.7623 99.7797 41.6033 104.621 47.5543 104.621C53.5052 104.621 58.3463 99.7797 58.3463 93.8288C58.3463 87.8779 53.5052 83.0368 47.5543 83.0368Z" fill="#000000" fill-rule="nonzero" opacity="1" stroke="none" vectornator:layerName="path"/>
<path d="M103.166 58.5626C97.2151 58.5626 92.3725 63.4037 92.3725 69.3546C92.3725 75.3055 97.2151 80.1466 103.166 80.1466C109.117 80.1466 113.958 75.3055 113.958 69.3546C113.958 63.4037 109.117 58.5626 103.166 58.5626Z" fill="#000000" fill-rule="nonzero" opacity="1" stroke="none" vectornator:layerName="path"/>
<path d="M67.1137 0C62.2567 0 58.8622 1.09538 56.735 3.34974C52.8072 7.51451 53.2696 15.4062 53.8072 24.5436C54.7335 40.3341 55.8867 59.986 32.8085 68.3633C17.6349 73.8705 10.5294 81.9848 12.2592 91.8273C15.2231 108.68 44.4444 127.891 67.1137 127.891C100.686 127.891 128 99.2046 128 63.9456C128 28.6866 100.686 0 67.1137 0ZM47.5543 107.51C40.0094 107.51 33.8721 101.372 33.8721 93.8273C33.8721 86.2825 40.0094 80.1452 47.5543 80.1452C55.0991 80.1452 61.2365 86.2825 61.2365 93.8273C61.2365 101.372 55.0991 107.51 47.5543 107.51ZM90.9274 20.9236C98.4723 20.9236 104.611 27.0609 104.611 34.6058C104.611 42.1506 98.4723 48.288 90.9274 48.288C83.3826 48.288 77.2453 42.1506 77.2453 34.6058C77.2453 27.0609 83.384 20.9236 90.9274 20.9236ZM84.8046 113.872C77.2597 113.872 71.1224 107.735 71.1224 100.19C71.1224 92.6453 77.2597 86.5079 84.8046 86.5079C92.3494 86.5079 98.4868 92.6453 98.4868 100.19C98.4868 107.735 92.3494 113.872 84.8046 113.872ZM103.166 83.0368C95.6211 83.0368 89.4823 76.8995 89.4823 69.3546C89.4823 61.8097 95.6211 55.6724 103.166 55.6724C110.711 55.6724 116.848 61.8097 116.848 69.3546C116.848 76.8995 110.711 83.0368 103.166 83.0368Z" fill="#000000" fill-rule="nonzero" opacity="1" stroke="none" vectornator:layerName="path"/>
</g>
</g>
</svg>
