<?xml version="1.0" encoding="UTF-8" standalone="no"?>
<!DOCTYPE svg PUBLIC "-//W3C//DTD SVG 1.1//EN" "http://www.w3.org/Graphics/SVG/1.1/DTD/svg11.dtd">
<!-- Created with Vectornator (http://vectornator.io/) -->
<svg height="100%" stroke-miterlimit="10" style="fill-rule:nonzero;clip-rule:evenodd;stroke-linecap:round;stroke-linejoin:round;" version="1.1" viewBox="0 0 1024 1024" width="100%" xml:space="preserve" xmlns="http://www.w3.org/2000/svg" xmlns:vectornator="http://vectornator.io" xmlns:xlink="http://www.w3.org/1999/xlink">
<defs/>
<g id="Layer-1" vectornator:layerName="Layer 1">
<path d="M513.5 3C231.559 3 3 231.559 3 513.5C3 795.441 231.559 1024 513.5 1024C795.441 1024 1024 795.441 1024 513.5C1024 231.559 795.441 3 513.5 3ZM506.549 849.344C474.275 849.344 448.113 823.181 448.113 790.908C448.113 758.635 474.275 732.472 506.549 732.472C538.822 732.472 564.984 758.635 564.984 790.908C564.925 823.156 538.797 849.284 506.549 849.344ZM570.415 565.636C570.415 565.636 564.659 567.7 564.659 571.067L564.659 617.446C564.659 649.57 538.618 675.611 506.494 675.611C474.371 675.611 448.33 649.57 448.33 617.446L448.33 571.067C448.853 518.299 482.989 471.75 533.16 455.39C567.808 443.827 590.738 410.868 589.532 374.362C587.192 329.758 550.666 294.61 506.005 293.985C474.384 294.123 445.637 312.36 432.037 340.908C418.09 369.852 383.32 382.009 354.376 368.062C325.432 354.115 313.275 319.345 327.222 290.401C359.945 221.813 429.035 178.004 505.028 177.656L506.223 177.656C613.712 178.279 701.632 263.469 705.644 370.886C708.603 458.508 653.651 537.667 570.524 565.528L570.415 565.636Z" fill="#ffffff" fill-rule="nonzero" opacity="1" stroke="none" vectornator:layerName="path"/>
</g>
</svg>
