<?xml version="1.0" encoding="UTF-8" standalone="no"?>
<!DOCTYPE svg PUBLIC "-//W3C//DTD SVG 1.1//EN" "http://www.w3.org/Graphics/SVG/1.1/DTD/svg11.dtd">
<!-- Created with Vectornator (http://vectornator.io/) -->
<svg height="100%" stroke-miterlimit="10" style="fill-rule:nonzero;clip-rule:evenodd;stroke-linecap:round;stroke-linejoin:round;" version="1.1" viewBox="0 0 1024 1024" width="100%" xml:space="preserve" xmlns="http://www.w3.org/2000/svg" xmlns:vectornator="http://vectornator.io" xmlns:xlink="http://www.w3.org/1999/xlink">
<defs/>
<g id="Layer-1" vectornator:layerName="Layer 1">
<path d="M0 0L0 1024L1024 1024L1024 0L0 0ZM517.25 181.5C559.455 181.5 596.691 189.272 629 204.844C661.309 220.416 686.265 241.597 703.875 268.375C721.485 295.153 730.313 324.252 730.312 355.688C730.312 380.428 725.292 402.122 715.25 420.75C705.208 439.378 693.263 455.465 679.438 469C665.612 482.535 640.801 505.295 605 537.312C595.104 546.336 587.154 554.285 581.188 561.125C575.221 567.965 570.786 574.23 567.875 579.906C564.964 585.582 562.726 591.23 561.125 596.906C559.524 602.582 557.108 612.55 553.906 626.812C548.376 657.084 531.075 672.219 501.969 672.219C486.833 672.219 474.083 667.271 463.75 657.375C453.417 647.479 448.25 632.783 448.25 613.281C448.25 588.832 452.026 567.682 459.594 549.781C467.162 531.881 477.203 516.16 489.719 502.625C502.235 489.09 519.127 473.003 540.375 454.375C559.003 438.075 572.455 425.764 580.75 417.469C589.045 409.173 596.043 399.937 601.719 389.75C607.395 379.563 610.25 368.496 610.25 356.562C610.25 333.277 601.569 313.634 584.25 297.625C566.931 281.616 544.61 273.625 517.25 273.625C485.233 273.625 461.636 281.689 446.5 297.844C431.364 313.998 418.572 337.783 408.094 369.219C398.197 402.109 379.433 418.562 351.781 418.562C335.481 418.562 321.706 412.81 310.5 401.312C299.294 389.815 293.688 377.389 293.688 364C293.688 336.349 302.589 308.317 320.344 279.938C338.099 251.558 364.008 228.066 398.062 209.438C432.117 190.809 471.843 181.5 517.25 181.5ZM506.75 711.969C525.087 711.969 540.515 718.234 553.031 730.75C565.547 743.266 571.813 758.694 571.812 777.031C571.812 797.406 565.254 813.389 552.156 825.031C539.058 836.674 523.923 842.5 506.75 842.5C488.995 842.5 473.494 836.747 460.25 825.25C447.006 813.753 440.406 797.697 440.406 777.031C440.406 758.694 446.787 743.266 459.594 730.75C472.401 718.234 488.122 711.969 506.75 711.969Z" fill="#ffffff" fill-rule="nonzero" opacity="1" stroke="none" vectornator:layerName="Curve 1"/>
</g>
</svg>
