<?xml version="1.0" encoding="UTF-8" standalone="no"?>
<!DOCTYPE svg PUBLIC "-//W3C//DTD SVG 1.1//EN" "http://www.w3.org/Graphics/SVG/1.1/DTD/svg11.dtd">
<!-- Created with Vectornator (http://vectornator.io/) -->
<svg height="24.0pt" stroke-miterlimit="10" style="fill-rule:nonzero;clip-rule:evenodd;stroke-linecap:round;stroke-linejoin:round;" version="1.1" viewBox="0 0 24 24" width="24.0pt" xml:space="preserve" xmlns="http://www.w3.org/2000/svg" xmlns:xlink="http://www.w3.org/1999/xlink">
<defs/>
<g id="SVGRepo_iconCarrier">
<g opacity="0">
<path d="M8.92762 4.5462C6.36835 4.5462 4.30569 6.60886 4.30569 9.16813C4.30569 11.7274 6.36835 13.7901 8.92762 13.7901C10.1162 13.7901 11.1797 13.3236 12 12.5878C11.0541 11.7394 10.4237 10.5388 10.4237 9.16813C10.4237 7.79749 11.0541 6.59684 12 5.74843C11.1797 5.01269 10.1162 4.5462 8.92762 4.5462ZM12 5.74843C12.9459 6.59684 13.5763 7.79749 13.5763 9.16813C13.5763 10.5388 12.9459 11.7394 12 12.5878C12.8203 13.3236 13.8838 13.7901 15.0724 13.7901C17.6316 13.7901 19.6943 11.7274 19.6943 9.16813C19.6943 6.60886 17.6316 4.5462 15.0724 4.5462C13.8838 4.5462 12.8203 5.01269 12 5.74843Z" fill="#ffffff" fill-rule="nonzero" opacity="1" stroke="none"/>
</g>
<text fill="#ffffff" font-family="Helvetica" font-size="12.2184" opacity="1" stroke="none" text-anchor="start" transform="matrix(1 0 0 1 3.32887 2.64279)" x="0" y="0">
<tspan font-family="SFPro-Regular" textLength="27.7359" x="0" y="12">􀵉</tspan>
</text>
</g>
</svg>
