<?xml version="1.0" encoding="UTF-8" standalone="no"?>
<!DOCTYPE svg PUBLIC "-//W3C//DTD SVG 1.1//EN" "http://www.w3.org/Graphics/SVG/1.1/DTD/svg11.dtd">
<!-- Created with Vectornator (http://vectornator.io/) -->
<svg height="100%" stroke-miterlimit="10" style="fill-rule:nonzero;clip-rule:evenodd;stroke-linecap:round;stroke-linejoin:round;" version="1.1" viewBox="0 0 128 128" width="100%" xml:space="preserve" xmlns="http://www.w3.org/2000/svg" xmlns:vectornator="http://vectornator.io" xmlns:xlink="http://www.w3.org/1999/xlink">
<defs/>
<clipPath id="ArtboardFrame">
<rect height="128" width="128" x="0" y="0"/>
</clipPath>
<g clip-path="url(#ArtboardFrame)" id="Untitled" vectornator:layerName="Untitled">
<g opacity="1" vectornator:layerName="g">
<path d="M30.22 48.8169C31.2163 56.2889 37.1938 62.2665 44.4998 63.0967C55.2926 64.425 64.5911 55.2926 63.0967 44.4998C62.1004 37.0278 56.1228 31.0502 48.8169 30.22C38.0241 28.7256 28.8916 37.858 30.22 48.8169Z" fill="#000000" fill-rule="nonzero" opacity="1" stroke="none" vectornator:layerName="path"/>
<path d="M21.2536 48.9829C22.582 48.9829 23.5782 47.9867 23.5782 46.6583L23.5782 46.6583L23.5782 46.6583C23.5782 45.33 22.582 44.3337 21.2536 44.3337L18.929 44.3337L2.32461 44.3337C0.996263 44.3337 0 45.33 0 46.6583L0 46.8244C0 48.1527 0.996263 49.149 2.32461 49.149L18.929 49.149L21.2536 49.149L21.2536 48.9829Z" fill="#000000" fill-rule="nonzero" opacity="1" stroke="none" vectornator:layerName="path"/>
<path d="M46.6583 23.5782L46.6583 23.5782C46.6583 23.5782 46.8244 23.5782 46.6583 23.5782C47.9867 23.5782 48.9829 22.582 48.9829 21.2536L48.9829 18.929L48.9829 2.32461C48.9829 0.996263 47.9867 0 46.6583 0L46.4923 0C45.1639 0 44.1677 0.996263 44.1677 2.32461L44.1677 18.929L44.1677 21.2536C44.3337 22.582 45.496 23.5782 46.6583 23.5782Z" fill="#000000" fill-rule="nonzero" opacity="1" stroke="none" vectornator:layerName="path"/>
<path d="M63.0967 30.22C64.0929 31.2163 65.5873 31.2163 66.4176 30.22L68.078 28.5595L79.7011 16.9365C80.5313 16.1063 80.5313 14.6119 79.7011 13.6156L79.7011 13.6156C78.8708 12.7854 77.3765 12.7854 76.3802 13.6156L64.7571 25.2387L63.0967 26.8991C62.1004 27.8954 62.1004 29.3898 63.0967 30.22L63.0967 30.22Z" fill="#000000" fill-rule="nonzero" opacity="1" stroke="none" vectornator:layerName="path"/>
<path d="M27.0652 62.9306L25.4047 64.5911L13.7816 76.2141C12.9514 77.0444 12.9514 78.5388 13.7816 79.535L13.9477 79.7011C14.7779 80.5313 16.2723 80.5313 17.2686 79.7011L28.8916 68.078L30.5521 66.4176C31.3823 65.5873 31.3823 64.0929 30.5521 63.0967L30.5521 63.0967C29.3898 62.1004 28.0614 62.1004 27.0652 62.9306Z" fill="#000000" fill-rule="nonzero" opacity="1" stroke="none" vectornator:layerName="path"/>
<path d="M25.4047 28.7256L27.0652 30.386C27.8954 31.2163 29.3898 31.2163 30.386 30.386L30.386 30.386C31.2163 29.5558 31.3823 28.0614 30.386 27.0652L28.7256 25.4047L17.1025 13.7816C16.2723 12.9514 14.7779 12.9514 13.7816 13.7816L13.6156 13.9477C12.7854 14.7779 12.7854 16.2723 13.6156 17.2686L25.4047 28.7256Z" fill="#000000" fill-rule="nonzero" opacity="1" stroke="none" vectornator:layerName="path"/>
<path d="M127.024 6.14362C125.695 4.81527 123.371 4.81527 122.042 6.14362L83.8522 44.3337L74.5537 44.3337L72.2291 44.3337C70.9007 44.3337 69.9045 45.33 69.9045 46.6583L69.9045 46.6583L69.9045 46.6583C69.9045 47.9867 70.9007 48.9829 72.2291 48.9829L74.5537 48.9829L79.0369 48.9829L65.5873 62.4325C64.7571 62.1004 63.7609 62.2665 63.0967 62.9306L63.0967 62.9306C62.4325 63.5948 62.2665 64.5911 62.5985 65.4213L49.149 79.0369L49.149 74.3877L49.149 72.063C49.149 70.7347 48.1527 69.7384 46.8244 69.7384L46.8244 69.7384L46.8244 69.7384C45.496 69.7384 44.4998 70.7347 44.4998 72.063L44.4998 74.3877L44.4998 83.6861L4.98132 123.039C3.65297 124.367 3.65297 126.691 4.98132 128.02C5.64549 128.684 6.64176 129.016 7.47198 129.016C8.30219 129.016 9.29846 128.684 9.96263 128.02L126.858 11.1249C128.352 9.79659 128.352 7.47198 127.024 6.14362Z" fill="#000000" fill-rule="nonzero" opacity="1" stroke="none" vectornator:layerName="path"/>
<path d="M108.095 73.3914C109.589 72.8933 110.087 70.7347 108.593 69.9045C103.279 66.4176 96.6375 64.7571 89.6637 65.9194C77.3765 67.7459 68.078 77.3765 66.7496 89.8297C64.9232 106.268 77.7085 120.216 93.8148 120.216C99.2942 120.216 104.276 118.555 108.593 115.899C109.921 115.068 109.589 112.91 108.095 112.412C99.7924 109.755 93.8148 102.117 93.8148 92.9846C93.8148 83.6861 99.7924 76.0481 108.095 73.3914Z" fill="#000000" fill-rule="nonzero" opacity="1" stroke="none" vectornator:layerName="path"/>
</g>
</g>
</svg>
