<?xml version="1.0" encoding="UTF-8" standalone="no"?>
<!DOCTYPE svg PUBLIC "-//W3C//DTD SVG 1.1//EN" "http://www.w3.org/Graphics/SVG/1.1/DTD/svg11.dtd">
<!-- Created with Vectornator (http://vectornator.io/) -->
<svg height="24.0pt" stroke-miterlimit="10" style="fill-rule:nonzero;clip-rule:evenodd;stroke-linecap:round;stroke-linejoin:round;" version="1.1" viewBox="0 0 24 24" width="24.0pt" xml:space="preserve" xmlns="http://www.w3.org/2000/svg" xmlns:xlink="http://www.w3.org/1999/xlink">
<defs/>
<g id="SVGRepo_iconCarrier">
<g opacity="1">
<path d="M11.4801 24L12.5199 24C12.6668 24 12.7911 23.9595 12.8928 23.8785C12.9945 23.7975 13.0605 23.6836 13.0906 23.5366L13.3844 22.2935C13.4937 22.2558 13.601 22.2163 13.7065 22.1748C13.812 22.1334 13.9118 22.0901 14.006 22.0449L15.0966 22.7116C15.2171 22.787 15.3424 22.819 15.4724 22.8077C15.6023 22.7964 15.7182 22.7399 15.8199 22.6382L16.5488 21.9149C16.6505 21.8132 16.708 21.6945 16.7212 21.5589C16.7344 21.4233 16.6995 21.2952 16.6166 21.1746L15.9499 20.0954C15.9988 19.9974 16.0431 19.8976 16.0826 19.7959C16.1222 19.6942 16.1589 19.5924 16.1928 19.4907L17.4473 19.1912C17.5904 19.1611 17.7025 19.0952 17.7835 18.9935C17.8645 18.8918 17.905 18.7674 17.905 18.6205L17.905 17.5977C17.905 17.4546 17.8645 17.3322 17.7835 17.2304C17.7025 17.1287 17.5904 17.0628 17.4473 17.0327L16.2041 16.7332C16.1665 16.6164 16.126 16.5071 16.0826 16.4054C16.0393 16.3037 15.9988 16.2077 15.9612 16.1172L16.6279 15.021C16.707 14.9005 16.7419 14.7752 16.7325 14.6452C16.7231 14.5153 16.6656 14.3994 16.5601 14.2977L15.8199 13.5688C15.7144 13.4746 15.6014 13.419 15.4808 13.4021C15.3603 13.3851 15.2379 13.4124 15.1135 13.484L14.006 14.1678C13.9156 14.1188 13.8186 14.0736 13.715 14.0321C13.6114 13.9907 13.5012 13.9511 13.3844 13.9135L13.0906 12.6534C13.0605 12.5102 12.9945 12.3972 12.8928 12.3143C12.7911 12.2314 12.6668 12.19 12.5199 12.19L11.4801 12.19C11.3332 12.19 11.2089 12.2314 11.1072 12.3143C11.0055 12.3972 10.9377 12.5102 10.9038 12.6534L10.6099 13.9022C10.5007 13.9398 10.3924 13.9803 10.285 14.0237C10.1776 14.067 10.0769 14.1131 9.98269 14.1621L8.88645 13.484C8.76214 13.4124 8.63876 13.3842 8.51633 13.3993C8.3939 13.4143 8.27994 13.4708 8.17446 13.5688L7.43987 14.2977C7.33439 14.3994 7.276 14.5153 7.2647 14.6452C7.2534 14.7752 7.28919 14.9005 7.37206 15.021L8.0332 16.1172C7.99552 16.2077 7.95503 16.3037 7.91171 16.4054C7.86838 16.5071 7.82977 16.6164 7.79587 16.7332L6.55271 17.0327C6.40579 17.0628 6.29278 17.1287 6.21367 17.2304C6.13456 17.3322 6.095 17.4546 6.095 17.5977L6.095 18.6205C6.095 18.7674 6.13456 18.8918 6.21367 18.9935C6.29278 19.0952 6.40579 19.1611 6.55271 19.1912L7.80717 19.4907C7.8373 19.5924 7.87309 19.6942 7.91453 19.7959C7.95597 19.8976 7.99929 19.9974 8.0445 20.0954L7.38336 21.1746C7.30049 21.2952 7.26564 21.4233 7.27883 21.5589C7.29201 21.6945 7.34946 21.8132 7.45117 21.9149L8.17446 22.6382C8.27618 22.7399 8.39202 22.7964 8.52198 22.8077C8.65195 22.819 8.77909 22.787 8.90341 22.7116L9.98834 22.0449C10.0825 22.0901 10.1824 22.1334 10.2878 22.1748C10.3933 22.2163 10.5007 22.2558 10.6099 22.2935L10.9038 23.5366C10.9377 23.6836 11.0055 23.7975 11.1072 23.8785C11.2089 23.9595 11.3332 24 11.4801 24ZM12 20.0897C11.6346 20.0897 11.3003 19.9993 10.997 19.8185C10.6937 19.6376 10.4526 19.3956 10.2737 19.0924C10.0948 18.7891 10.0053 18.4548 10.0053 18.0893C10.0053 17.7239 10.0957 17.3915 10.2765 17.092C10.4574 16.7925 10.6985 16.5524 10.9998 16.3715C11.3012 16.1907 11.6346 16.1003 12 16.1003C12.3654 16.1003 12.6997 16.1907 13.003 16.3715C13.3063 16.5524 13.5474 16.7925 13.7263 17.092C13.9052 17.3915 13.9947 17.7239 13.9947 18.0893C13.9947 18.4548 13.9052 18.7891 13.7263 19.0924C13.5474 19.3956 13.3063 19.6376 13.003 19.8185C12.6997 19.9993 12.3654 20.0897 12 20.0897Z" fill="#ffffff" fill-rule="nonzero" opacity="1" stroke="none"/>
</g>
</g>
</svg>
