<?xml version="1.0" encoding="UTF-8" standalone="no"?>
<!DOCTYPE svg PUBLIC "-//W3C//DTD SVG 1.1//EN" "http://www.w3.org/Graphics/SVG/1.1/DTD/svg11.dtd">
<!-- Created with Vectornator (http://vectornator.io/) -->
<svg height="100%" stroke-miterlimit="10" style="fill-rule:nonzero;clip-rule:evenodd;stroke-linecap:round;stroke-linejoin:round;" version="1.1" viewBox="0 0 128 128" width="100%" xml:space="preserve" xmlns="http://www.w3.org/2000/svg" xmlns:vectornator="http://vectornator.io" xmlns:xlink="http://www.w3.org/1999/xlink">
<defs/>
<g id="Untitled" vectornator:layerName="Untitled">
<path d="M10.5307 0L117.468 0C120.355 0 122.988 1.18553 124.902 3.09802L124.908 3.09163C126.814 4.99774 128 7.63242 128 10.5307L128 56.7087C128 59.5958 126.814 62.2273 124.902 64.143L124.908 64.1494C123.002 66.0555 120.368 67.2394 117.468 67.2394L10.5307 67.2394C5.79981 67.2394 3.16513 64.1494 3.09004 64.1494C1.18393 62.2433 0 59.6086 0 56.7087L0 10.5307C0 7.6436 1.18553 5.01212 3.09802 3.09643L3.09163 3.09004C4.99614 1.18393 7.63082 0 10.5307 0L10.5307 0ZM99.1144 29.8506C97.2083 29.2307 93.6086 27.5723 92.4646 31.0905C91.3206 34.6119 95.2127 35.3852 97.1204 36.0051C95.9429 37.6269 93.2427 40.5459 96.2449 42.7221C99.0904 44.7847 100.915 41.7922 102.356 39.811C103.796 41.7922 105.622 44.7847 108.466 42.7221C111.468 40.5459 108.77 37.6269 107.59 36.0051C109.498 35.3852 113.39 34.6119 112.246 31.0905C111.102 27.5723 107.503 29.2323 105.596 29.8506C105.596 27.8439 106.063 23.899 102.356 23.899C98.6463 23.899 99.1144 27.8439 99.1144 29.8506L99.1144 29.8506ZM73.5441 29.8506C71.638 29.2307 68.0383 27.5723 66.8943 31.0905C65.7503 34.6119 69.6424 35.3852 71.5501 36.0051C70.371 37.6269 67.6724 40.5459 70.6746 42.7221C73.5202 44.7847 75.3448 41.7922 76.7843 39.811C78.2255 41.7922 80.0501 44.7847 82.8957 42.7221C85.8979 40.5459 83.1993 37.6269 82.0201 36.0051C83.9279 35.3852 87.82 34.6119 86.676 31.0905C85.532 27.5723 81.9323 29.2323 80.0262 29.8506C80.0262 27.8439 80.4927 23.899 76.7859 23.899C73.076 23.899 73.5441 27.8439 73.5441 29.8506L73.5441 29.8506ZM47.9738 29.8506C46.0677 29.2307 42.468 27.5723 41.324 31.0905C40.18 34.6119 44.0721 35.3852 45.9799 36.0051C44.8007 37.6269 42.1021 40.5459 45.1043 42.7221C47.9499 44.7847 49.7745 41.7922 51.2141 39.811C52.6536 41.7922 54.4798 44.7847 57.3254 42.7221C60.3276 40.5459 57.6274 37.6269 56.4499 36.0051C58.356 35.3852 62.2497 34.6119 61.1057 31.0905C59.9617 27.5723 56.362 29.2323 54.4559 29.8506C54.4559 27.8439 54.9224 23.899 51.2157 23.899C47.5057 23.899 47.9738 27.8439 47.9738 29.8506L47.9738 29.8506ZM22.4036 29.8506C20.4974 29.2307 16.8977 27.5723 15.7537 31.0905C14.6098 34.6119 18.5019 35.3852 20.4096 36.0051C19.2304 37.6269 16.5318 40.5459 19.534 42.7221C22.3796 44.7847 24.2042 41.7922 25.6438 39.811C27.0849 41.7922 28.9096 44.7847 31.7551 42.7221C34.7573 40.5459 32.0571 37.6269 30.8796 36.0051C32.7873 35.3852 36.6794 34.6119 35.5354 31.0905C34.3914 27.5723 30.7917 29.2323 28.8856 29.8506C28.8856 27.8439 29.3521 23.899 25.6454 23.899C21.937 23.899 22.4036 27.8439 22.4036 29.8506L22.4036 29.8506ZM117.468 6.48045L10.5307 6.48045C9.42029 6.48045 8.40892 6.9374 7.67396 7.67236C7.4359 7.67236 6.48045 9.1311 6.48045 10.5307L6.48045 56.7087C6.48045 57.8191 6.9374 58.8321 7.67236 59.5671L7.66597 59.5735C8.40093 60.3052 9.4139 60.759 10.5307 60.759L117.468 60.759C118.578 60.759 119.591 60.302 120.326 59.5671L120.339 59.5671C121.066 58.8385 121.518 57.8271 121.518 56.7087L121.518 10.5307C121.518 9.42029 121.061 8.40892 120.324 7.67236C120.326 7.4359 118.866 6.48045 117.468 6.48045Z" fill="#ffffff" fill-rule="evenodd" opacity="1" stroke="none" vectornator:layerName="path"/>
</g>
</svg>
