<?xml version="1.0" encoding="UTF-8" standalone="no"?>
<!DOCTYPE svg PUBLIC "-//W3C//DTD SVG 1.1//EN" "http://www.w3.org/Graphics/SVG/1.1/DTD/svg11.dtd">
<!-- Created with Vectornator (http://vectornator.io/) -->
<svg height="100%" stroke-miterlimit="10" style="fill-rule:nonzero;clip-rule:evenodd;stroke-linecap:round;stroke-linejoin:round;" version="1.1" viewBox="0 0 24 24" width="100%" xml:space="preserve" xmlns="http://www.w3.org/2000/svg" xmlns:vectornator="http://vectornator.io" xmlns:xlink="http://www.w3.org/1999/xlink">
<defs/>
<g id="Layer-1" vectornator:layerName="Layer 1">
<g opacity="1" vectornator:layerName="Group 1">
<path d="M12 24C12.8066 24 13.566 23.8456 14.2781 23.5369C14.9901 23.2281 15.6183 22.8016 16.1624 22.2574C16.7066 21.7133 17.1331 21.0851 17.4419 20.3731C17.7506 19.661 17.905 18.9016 17.905 18.095C17.905 17.2884 17.7506 16.529 17.4419 15.8169C17.1331 15.1049 16.7066 14.4767 16.1624 13.9326C15.6183 13.3884 14.9892 12.9619 14.2752 12.6531C13.5612 12.3444 12.8008 12.19 11.9942 12.19C11.1876 12.19 10.4282 12.3444 9.71615 12.6531C9.00408 12.9619 8.37692 13.3884 7.83466 13.9326C7.2924 14.4767 6.8669 15.1049 6.55814 15.8169C6.24938 16.529 6.095 17.2884 6.095 18.095C6.095 18.9016 6.24938 19.661 6.55814 20.3731C6.8669 21.0851 7.29337 21.7133 7.83755 22.2574C8.38174 22.8016 9.00987 23.2281 9.72194 23.5369C10.434 23.8456 11.1934 24 12 24ZM8.27175 19.6755C8.27175 19.552 8.3142 19.4516 8.39911 19.3744C8.48402 19.2972 8.59208 19.2586 8.7233 19.2586L9.43538 19.2586C9.57046 19.2586 9.68817 19.2307 9.78852 19.1747C9.88887 19.1187 9.99693 19.0213 10.1127 18.8823L10.7901 18.0892L10.1127 17.2903C9.99307 17.1514 9.88404 17.0549 9.78562 17.0008C9.68721 16.9468 9.57046 16.9198 9.43538 16.9198L8.7233 16.9198C8.59594 16.9198 8.48884 16.8812 8.402 16.804C8.31516 16.7268 8.27175 16.6284 8.27175 16.5088C8.27175 16.3814 8.31516 16.2772 8.402 16.1961C8.48884 16.1151 8.59594 16.0746 8.7233 16.0746L9.4238 16.0746C9.70168 16.0746 9.93807 16.1228 10.133 16.2193C10.3279 16.3158 10.5257 16.4817 10.7264 16.7172L11.3458 17.4466L11.9711 16.7172C12.1717 16.4817 12.3695 16.3158 12.5644 16.2193C12.7594 16.1228 12.9957 16.0746 13.2736 16.0746L13.7426 16.0746L13.7426 15.5072C13.7426 15.3992 13.7763 15.3114 13.8439 15.2438C13.9114 15.1763 13.9992 15.1425 14.1073 15.1425C14.2076 15.1425 14.2983 15.1753 14.3794 15.2409L15.5372 16.2077C15.626 16.2849 15.6704 16.3766 15.6704 16.4827C15.6704 16.5888 15.626 16.6786 15.5372 16.7519L14.3794 17.7071C14.2983 17.7805 14.2076 17.8171 14.1073 17.8171C13.9992 17.8171 13.9114 17.7833 13.8439 17.7158C13.7763 17.6483 13.7426 17.5605 13.7426 17.4524L13.7426 16.9198L13.291 16.9198C13.1405 16.9198 13.0141 16.9458 12.9118 16.9979C12.8095 17.05 12.6986 17.1475 12.5789 17.2903L11.9016 18.0892L12.5789 18.8881C12.6986 19.0309 12.8095 19.1284 12.9118 19.1805C13.0141 19.2326 13.1405 19.2586 13.291 19.2586L13.7426 19.2586L13.7426 18.7434C13.7426 18.6353 13.7763 18.5475 13.8439 18.48C13.9114 18.4124 13.9992 18.3787 14.1073 18.3787C14.2076 18.3787 14.2983 18.4134 14.3794 18.4829L15.5372 19.4439C15.626 19.5249 15.6704 19.6185 15.6704 19.7247C15.6704 19.8308 15.626 19.9205 15.5372 19.9939L14.3736 20.9607C14.281 21.0224 14.1922 21.0533 14.1073 21.0533C13.9992 21.0533 13.9114 21.0195 13.8439 20.952C13.7763 20.8844 13.7426 20.7966 13.7426 20.6886L13.7426 20.0981L13.2736 20.0981C12.9919 20.0981 12.7545 20.0498 12.5616 19.9533C12.3686 19.8569 12.1717 19.6948 11.9711 19.467L11.3458 18.7376L10.7264 19.467C10.5257 19.6986 10.3288 19.8607 10.1359 19.9533C9.9429 20.046 9.70554 20.0923 9.4238 20.0923L8.7233 20.0923C8.59594 20.0923 8.48884 20.0537 8.402 19.9765C8.31516 19.8993 8.27175 19.799 8.27175 19.6755Z" fill="#ffffff" fill-rule="nonzero" opacity="1" stroke="none"/>
</g>
</g>
</svg>
