<?xml version="1.0" encoding="UTF-8" standalone="no"?>
<!DOCTYPE svg PUBLIC "-//W3C//DTD SVG 1.1//EN" "http://www.w3.org/Graphics/SVG/1.1/DTD/svg11.dtd">
<!-- Created with Vectornator (http://vectornator.io/) -->
<svg height="100%" stroke-miterlimit="10" style="fill-rule:nonzero;clip-rule:evenodd;stroke-linecap:round;stroke-linejoin:round;" version="1.1" viewBox="0 0 128 128" width="100%" xml:space="preserve" xmlns="http://www.w3.org/2000/svg" xmlns:vectornator="http://vectornator.io" xmlns:xlink="http://www.w3.org/1999/xlink">
<defs/>
<g id="Untitled" vectornator:layerName="Untitled">
<path d="M128 57.6L105.683 57.6C102.959 48.9536 94.8672 42.6667 85.3333 42.6667C75.7995 42.6667 67.7077 48.9536 64.9835 57.6L0 57.6L0 70.4L64.9835 70.4C67.7077 79.0464 75.7995 85.3333 85.3333 85.3333C94.8672 85.3333 102.959 79.0464 105.683 70.4L128 70.4L128 57.6ZM85.3333 72.5333C80.6272 72.5333 76.8 68.7061 76.8 64C76.8 59.2939 80.6272 55.4667 85.3333 55.4667C90.0395 55.4667 93.8667 59.2939 93.8667 64C93.8667 68.7061 90.0395 72.5333 85.3333 72.5333ZM128 100.267L63.0165 100.267C60.2923 91.6203 52.2005 85.3333 42.6667 85.3333C33.1328 85.3333 25.0411 91.6203 22.3168 100.267L0 100.267L0 113.067L22.3168 113.067C25.0411 121.713 33.1328 128 42.6667 128C52.2005 128 60.2923 121.713 63.0165 113.067L128 113.067L128 100.267ZM42.6667 115.2C37.9605 115.2 34.1333 111.373 34.1333 106.667C34.1333 101.961 37.9605 98.1333 42.6667 98.1333C47.3728 98.1333 51.2 101.961 51.2 106.667C51.2 111.373 47.3728 115.2 42.6667 115.2ZM128 14.9333L63.0165 14.9333C60.2923 6.28693 52.2005 0 42.6667 0C33.1328 0 25.0411 6.28693 22.3168 14.9333L0 14.9333L0 27.7333L22.3168 27.7333C25.0411 36.3797 33.1328 42.6667 42.6667 42.6667C52.2005 42.6667 60.2923 36.3797 63.0165 27.7333L128 27.7333L128 14.9333ZM42.6667 29.8667C37.9605 29.8667 34.1333 26.0395 34.1333 21.3333C34.1333 16.6272 37.9605 12.8 42.6667 12.8C47.3728 12.8 51.2 16.6272 51.2 21.3333C51.2 26.0395 47.3728 29.8667 42.6667 29.8667Z" fill="#000000" fill-rule="nonzero" opacity="1" stroke="none" vectornator:layerName="path"/>
</g>
</svg>
